<svg xmlns="http://www.w3.org/2000/svg" xmlns:xlink="http://www.w3.org/1999/xlink" id="Layer_1" enable-background="new 0 0 100 100" viewBox="0 0 100 100"><symbol id="navbar_x5F_icon_x5F_back_1_" viewBox="-1 -24 25 24"><path fill="none" stroke="#fff" stroke-miterlimit="10" stroke-width="2" d="M18-18.988c0-0.351,0.005-0.495-0.299-0.32L5.723-12.32c-0.304,0.175-0.24,0.463,0.065,0.639L17.67-4.693      C17.973-4.517,18-4.661,18-5.012V-18.988z" opacity=".9"/><rect width="24" height="24" y="-24" fill="none"/><rect width="25" height="24" x="-1" y="-24" fill="none" display="none"/></symbol><symbol id="navbar_x5F_icon_x5F_home_1_" viewBox="0 -24 24 24"><g opacity=".9"><g id="XMLID_809_"><circle id="XMLID_814_" cx="12" cy="-12" r="6.912" fill="none" stroke="#fff" stroke-miterlimit="10" stroke-width="1.803"/></g></g><rect width="24" height="24" y="-24" fill="none"/><rect width="24" height="23" y="-24" fill="none" display="none"/></symbol><symbol id="navbar_x5F_icon_x5F_recents_1_" viewBox="0 -24 24 24"><path fill="none" stroke="#fff" stroke-miterlimit="10" stroke-width="2" d="M19-5.72C19-5.371,18.6-5,18.213-5H5.786C5.4-5,5-5.371,5-5.72v-12.562C5-18.63,5.4-19,5.786-19h12.426      C18.6-19,19-18.63,19-18.282V-5.72z" opacity=".9"/><rect width="24" height="24" y="-24" fill="none"/><rect width="24" height="23" y="-24" fill="none" display="none"/></symbol><symbol id="sysbar_x5F_status_2" viewBox="0 -24 360 24"><use id="XMLID_495_" width="360" height="24" y="-24" overflow="visible" xlink:href="#sysbar_x5F_status_x5F_used_x5F_light"/></symbol><symbol id="sysbar_x5F_status_x5F_used_x5F_light" viewBox="0 -24 360 24"><rect width="360" height="24" y="-24" fill="#010101" fill-opacity="0"/><rect width="40" height="16" x="312" y="-21" fill="none" opacity=".9"/><path fill="#fff" d="M266.006-18.992l8.802,10.907C274.467-7.828,271.081-5,266-5s-8.467-2.828-8.808-3.084l8.802-10.907L266-19      l0,0l0,0L266.006-18.992z" opacity=".9"/><rect width="16" height="16" x="258" y="-20" fill="none"/><polygon fill="#fff" points="277 -18.997 291 -18.997 291 -4.997" opacity=".9"/><rect width="16" height="16" x="276" y="-20" fill="none"/><g><rect width="16" height="16" x="296" y="-20" fill="none"/><path fill="#fff" d="M306-6v1h-3v-1h-3v-13h9v13H306z" opacity=".9"/></g></symbol><rect width="23" height="23" x="18.334" y="72.807" fill="#ed6d64"/><rect width="23" height="23" x="59.334" y="72.807" fill="#ed6d64"/><rect width="23" height="5" x="59.334" y="67.807" fill="#f1f1f2"/><rect width="23" height="2" x="59.334" y="70.807" fill="#fff"/><polygon fill="#ed6d64" points="92.334 65.807 89.334 62.807 86.334 65.807 82.334 65.807 82.334 95.807 96.334 95.807 96.334 65.807"/><path fill="#8d7e8a" d="M90.334,69.807h-2v-3c0-0.552,0.448-1,1-1l0,0c0.552,0,1,0.448,1,1V69.807z"/><path fill="#7a6876" d="M89.334,65.807c-0.552,0-1,0.448-1,1v2c0-0.552,0.448-1,1-1s1,0.448,1,1v-2    C90.334,66.254,89.887,65.807,89.334,65.807z"/><path fill="#8d7e8a" d="M93.334 84.796h-8v-7c0-2.209 1.791-4 4-4h0c2.209 0 4 1.791 4 4V84.796zM93.282 95.796h-8v-4c0-2.209 1.791-4 4-4h0c2.209 0 4 1.791 4 4V95.796z"/><path fill="#7a6876" d="M89.334 73.796c-2.209 0-4 1.791-4 4v2c0-2.209 1.791-4 4-4s4 1.791 4 4v-2C93.334 75.587 91.544 73.796 89.334 73.796zM89.282 87.796c-2.209 0-4 1.791-4 4v2c0-2.209 1.791-4 4-4 2.209 0 4 1.791 4 4v-2C93.282 89.587 91.491 87.796 89.282 87.796z"/><path fill="#8d7e8a" d="M77.834,81.807h-2.5v-4.75c0-0.69,0.56-1.25,1.25-1.25l0,0c0.69,0,1.25,0.56,1.25,1.25V81.807z"/><path fill="#7a6876" d="M76.584,75.807c-0.69,0-1.25,0.56-1.25,1.25v2c0-0.69,0.56-1.25,1.25-1.25s1.25,0.56,1.25,1.25v-2    C77.834,76.366,77.275,75.807,76.584,75.807z"/><path fill="#8d7e8a" d="M66.334 81.807h-2.5v-4.75c0-.69.56-1.25 1.25-1.25l0 0c.69 0 1.25.56 1.25 1.25V81.807zM70.834 81.807h-2.5v-4.75c0-.69.56-1.25 1.25-1.25l0 0c.69 0 1.25.56 1.25 1.25V81.807z"/><path fill="#7a6876" d="M65.084 75.807c-.69 0-1.25.56-1.25 1.25v2c0-.69.56-1.25 1.25-1.25s1.25.56 1.25 1.25v-2C66.334 76.366 65.775 75.807 65.084 75.807zM69.584 75.807c-.69 0-1.25.56-1.25 1.25v2c0-.69.56-1.25 1.25-1.25s1.25.56 1.25 1.25v-2C70.834 76.366 70.275 75.807 69.584 75.807z"/><path fill="#8d7e8a" d="M61.334 95.501v-4.2c0-1.381 1.119-2.5 2.5-2.5h0c1.381 0 2.5 1.119 2.5 2.5v4.2M68.334 95.501v-4.2c0-1.381 1.119-2.5 2.5-2.5h0c1.381 0 2.5 1.119 2.5 2.5v4.2M75.334 95.501v-4.2c0-1.381 1.119-2.5 2.5-2.5h0c1.381 0 2.5 1.119 2.5 2.5v4.2"/><path fill="#7a6876" d="M63.834 88.801c-1.381 0-2.5 1.119-2.5 2.5v2c0-1.381 1.119-2.5 2.5-2.5s2.5 1.119 2.5 2.5v-2C66.334 89.92 65.215 88.801 63.834 88.801zM70.834 88.801c-1.381 0-2.5 1.119-2.5 2.5v2c0-1.381 1.119-2.5 2.5-2.5s2.5 1.119 2.5 2.5v-2C73.334 89.92 72.215 88.801 70.834 88.801zM77.834 88.801c-1.381 0-2.5 1.119-2.5 2.5v2c0-1.381 1.119-2.5 2.5-2.5s2.5 1.119 2.5 2.5v-2C80.334 89.92 79.215 88.801 77.834 88.801z"/><polygon fill="#ed6d64" points="14.334 65.807 11.334 62.807 8.334 65.807 4.334 65.807 4.334 95.807 18.334 95.807 18.334 65.807"/><path fill="#8d7e8a" d="M15.334 84.796h-8v-7c0-2.209 1.791-4 4-4h0c2.209 0 4 1.791 4 4V84.796zM22.834 81.807h-2.5v-4.75c0-.69.56-1.25 1.25-1.25h0c.69 0 1.25.56 1.25 1.25V81.807zM25.334 81.807h-2.5v-4.75c0-.69.56-1.25 1.25-1.25h0c.69 0 1.25.56 1.25 1.25V81.807zM29.834 81.807h-2.5v-4.75c0-.69.56-1.25 1.25-1.25h0c.69 0 1.25.56 1.25 1.25V81.807zM32.334 81.807h-2.5v-4.75c0-.69.56-1.25 1.25-1.25h0c.69 0 1.25.56 1.25 1.25V81.807zM36.834 81.807h-2.5v-4.75c0-.69.56-1.25 1.25-1.25h0c.69 0 1.25.56 1.25 1.25V81.807zM39.334 81.807h-2.5v-4.75c0-.69.56-1.25 1.25-1.25h0c.69 0 1.25.56 1.25 1.25V81.807z"/><path fill="#7a6876" d="M11.334 73.796c-2.209 0-4 1.791-4 4v2c0-2.209 1.791-4 4-4s4 1.791 4 4v-2C15.334 75.587 13.544 73.796 11.334 73.796zM21.584 75.807c-.69 0-1.25.56-1.25 1.25v2c0-.69.56-1.25 1.25-1.25s1.25.56 1.25 1.25v-2C22.834 76.366 22.275 75.807 21.584 75.807zM24.084 75.807c-.69 0-1.25.56-1.25 1.25v2c0-.69.56-1.25 1.25-1.25s1.25.56 1.25 1.25v-2C25.334 76.366 24.775 75.807 24.084 75.807zM28.584 75.807c-.69 0-1.25.56-1.25 1.25v2c0-.69.56-1.25 1.25-1.25s1.25.56 1.25 1.25v-2C29.834 76.366 29.275 75.807 28.584 75.807zM31.084 75.807c-.69 0-1.25.56-1.25 1.25v2c0-.69.56-1.25 1.25-1.25s1.25.56 1.25 1.25v-2C32.334 76.366 31.775 75.807 31.084 75.807zM38.084 75.807c-.69 0-1.25.56-1.25 1.25v2c0-.69.56-1.25 1.25-1.25s1.25.56 1.25 1.25v-2C39.334 76.366 38.775 75.807 38.084 75.807zM35.584 75.807c-.69 0-1.25.56-1.25 1.25v2c0-.69.56-1.25 1.25-1.25s1.25.56 1.25 1.25v-2C36.834 76.366 36.275 75.807 35.584 75.807z"/><rect width="18" height="57" x="41.334" y="38.807" fill="#ed6d64"/><path fill="#8d7e8a" d="M55.282,95.796h-10v-7c0-2.761,2.239-5,5-5h0c2.761,0,5,2.239,5,5V95.796z"/><path fill="#7a6876" d="M50.282,83.796c-2.761,0-5,2.239-5,5v2c0-2.761,2.239-5,5-5c2.761,0,5,2.239,5,5v-2    C55.282,86.035,53.044,83.796,50.282,83.796z"/><rect width="2" height="57" x="57.334" y="38.807" fill="#f48575"/><rect width="2" height="57" x="41.334" y="38.807" fill="#f48575"/><rect width="2" height="30" x="4.334" y="65.807" fill="#f48575"/><rect width="2" height="30" x="16.334" y="65.807" fill="#f48575"/><rect width="2" height="30" x="82.334" y="65.807" fill="#f48575"/><rect width="2" height="30" x="94.334" y="65.807" fill="#f48575"/><rect width="23" height="5" x="18.334" y="67.807" fill="#f1f1f2"/><polygon fill="#f1f1f2" points="4.334 65.807 7.334 56.807 15.334 56.807 18.334 65.807 14.334 65.807 11.334 62.807 8.334 65.807"/><rect width="21.808" height="2" x="18.782" y="70.807" fill="#fff"/><rect width="18" height="2" x="41.334" y="38.807" fill="#e0605a"/><polygon fill="#ed6d64" points="47.334 47.807 47.334 49.807 49.334 50.807 49.334 52.807 51.334 52.807 51.334 50.807 53.334 49.807 53.334 47.807"/><polygon fill="#f48575" points="49.334 49.807 49.334 47.807 47.334 47.807 47.334 49.807 50.334 50.807 50.334 52.807 51.334 52.807 51.334 50.807"/><polygon fill="#f48575" points="51.334 47.807 51.334 49.807 49.334 50.807 49.334 52.807 50.334 52.807 50.334 50.807 53.334 49.807 53.334 47.807"/><path fill="#8d7e8a" d="M49.334 65.807h-3v-7.5c0-.828.672-1.5 1.5-1.5h0c.828 0 1.5.672 1.5 1.5V65.807zM54.334 65.807h-3v-7.5c0-.828.672-1.5 1.5-1.5h0c.828 0 1.5.672 1.5 1.5V65.807zM50.334 80.807h-4v-8c0-1.105.895-2 2-2h0c1.105 0 2 .895 2 2V80.807zM54.334 80.807h-4v-8c0-1.105.895-2 2-2h0c1.105 0 2 .895 2 2V80.807z"/><rect width="2" height="23" x="80.334" y="72.807" fill="#e0605a"/><rect width="2" height="23" x="59.334" y="72.807" fill="#e0605a"/><rect width="2" height="23" x="39.334" y="72.807" fill="#e0605a"/><rect width="2" height="23" x="18.334" y="72.807" fill="#e0605a"/><path fill="#8d7e8a" d="M63.834 81.807h-2.5v-4.75c0-.69.56-1.25 1.25-1.25h0c.69 0 1.25.56 1.25 1.25V81.807zM73.334 81.807h-2.5v-4.75c0-.69.56-1.25 1.25-1.25l0 0c.69 0 1.25.56 1.25 1.25V81.807zM80.334 81.807h-2.5v-4.75c0-.69.56-1.25 1.25-1.25l0 0c.69 0 1.25.56 1.25 1.25V81.807z"/><rect width="2.5" height="2.5" x="61.334" y="83.796" fill="#8d7e8a"/><rect width="2.5" height="2.5" x="63.834" y="83.796" fill="#8d7e8a"/><rect width="2.5" height="2.5" x="68.334" y="83.796" fill="#8d7e8a"/><rect width="2.5" height="2.5" x="70.834" y="83.796" fill="#8d7e8a"/><rect width="2.5" height="2.5" x="75.334" y="83.796" fill="#8d7e8a"/><rect width="2.5" height="2.5" x="77.834" y="83.796" fill="#8d7e8a"/><rect width="2.5" height="2.5" x="20.334" y="83.796" fill="#8d7e8a"/><rect width="2.5" height="2.5" x="22.834" y="83.796" fill="#8d7e8a"/><rect width="2.5" height="2.5" x="27.334" y="83.796" fill="#8d7e8a"/><rect width="2.5" height="2.5" x="29.834" y="83.796" fill="#8d7e8a"/><rect width="2.5" height="2.5" x="34.334" y="83.796" fill="#8d7e8a"/><rect width="2.5" height="2.5" x="36.834" y="83.796" fill="#8d7e8a"/><polygon fill="#e0605a" points="92.334 65.807 89.334 62.807 86.334 65.807 82.334 65.807 82.334 67.807 86.334 67.807 89.334 64.807 92.334 67.807 96.334 67.807 96.334 65.807"/><polygon fill="#e0605a" points="14.334 65.807 11.334 62.807 8.334 65.807 4.334 65.807 4.334 67.807 8.334 67.807 11.334 64.807 14.334 67.807 18.334 67.807 18.334 65.807"/><path fill="#8d7e8a" d="M12.334,69.807h-2v-3c0-0.552,0.448-1,1-1h0c0.552,0,1,0.448,1,1V69.807z"/><path fill="#7a6876" d="M11.334,65.807c-0.552,0-1,0.448-1,1v2c0-0.552,0.448-1,1-1s1,0.448,1,1v-2    C12.334,66.254,11.887,65.807,11.334,65.807z"/><polyline fill="#f1f1f2" points="45.781 38.807 41.334 38.807 47.334 19.807 53.334 19.807 59.334 38.807 55.781 38.807"/><rect width="14" height="6" x="43.251" y="26.807" fill="#f1f1f2"/><polyline fill="#ed6d64" points="45.387 40.807 45.387 35.807 47.304 35.807 50.387 27.807 53.304 35.807 55.387 35.807 55.387 40.807"/><polygon fill="#e0605a" points="49.304 35.807 51.36 30.473 50.387 27.807 47.304 35.807 45.387 35.807 45.387 40.807 47.387 40.807 47.387 35.807"/><path fill="#e0605a" d="M53.387 35.807v5h2v-5C55.387 35.807 53.541 35.807 53.387 35.807zM51.304 35.807c0 0 1.846 0 2 0l-2.917-8-1.028 2.667L51.304 35.807z"/><circle cx="50.334" cy="42.807" r="3" fill="#ececed"/><path fill="#fff" d="M50.334,39.807c-0.171,0-0.337,0.023-0.5,0.05c1.418,0.239,2.5,1.464,2.5,2.95s-1.082,2.71-2.5,2.95    c0.163,0.028,0.329,0.05,0.5,0.05c1.657,0,3-1.343,3-3S51.991,39.807,50.334,39.807z"/><path fill="#d9d4d8" d="M48.334,42.807c0-1.486,1.082-2.71,2.5-2.95c-0.163-0.028-0.329-0.05-0.5-0.05c-1.657,0-3,1.343-3,3    s1.343,3,3,3c0.171,0,0.337-0.023,0.5-0.05C49.417,45.517,48.334,44.292,48.334,42.807z"/><path fill="#8d7e8a" d="M15.282,95.796h-8v-4c0-2.209,1.791-4,4-4h0c2.209,0,4,1.791,4,4V95.796z"/><path fill="#7a6876" d="M11.282,87.796c-2.209,0-4,1.791-4,4v2c0-2.209,1.791-4,4-4c2.209,0,4,1.791,4,4v-2    C15.282,89.587,13.491,87.796,11.282,87.796z"/><path fill="#8d7e8a" d="M20.334 95.501v-4.2c0-1.381 1.119-2.5 2.5-2.5h0c1.381 0 2.5 1.119 2.5 2.5v4.2M27.334 95.501v-4.2c0-1.381 1.119-2.5 2.5-2.5h0c1.381 0 2.5 1.119 2.5 2.5v4.2M34.334 95.501v-4.2c0-1.381 1.119-2.5 2.5-2.5h0c1.381 0 2.5 1.119 2.5 2.5v4.2"/><path fill="#7a6876" d="M22.834 88.801c-1.381 0-2.5 1.119-2.5 2.5v2c0-1.381 1.119-2.5 2.5-2.5s2.5 1.119 2.5 2.5v-2C25.334 89.92 24.215 88.801 22.834 88.801zM29.834 88.801c-1.381 0-2.5 1.119-2.5 2.5v2c0-1.381 1.119-2.5 2.5-2.5s2.5 1.119 2.5 2.5v-2C32.334 89.92 31.215 88.801 29.834 88.801zM36.834 88.801c-1.381 0-2.5 1.119-2.5 2.5v2c0-1.381 1.119-2.5 2.5-2.5s2.5 1.119 2.5 2.5v-2C39.334 89.92 38.215 88.801 36.834 88.801z"/><polygon fill="#f1f1f2" points="82.281 65.807 85.281 56.807 93.281 56.807 96.281 65.807 92.281 65.807 89.281 62.807 86.282 65.807"/><polygon fill="#fff" points="92.282 63.807 89.282 60.807 86.282 63.807 82.948 63.807 82.282 65.807 86.282 65.807 89.282 62.807 92.282 65.807 96.282 65.807 95.615 63.807"/><polygon fill="#fff" points="85.282 56.807 82.282 65.807 84.282 65.807 87.282 56.807"/><polygon fill="#fff" points="90.282 63.807 92.282 65.807 94.282 65.807 91.282 62.807"/><polygon fill="#fff" points="93.282 56.807 91.282 56.807 94.282 65.807 96.282 65.807"/><polygon fill="#fff" points="14.282 63.807 11.282 60.807 8.282 63.807 4.948 63.807 4.282 65.807 8.282 65.807 11.282 62.807 14.282 65.807 18.282 65.807 17.615 63.807"/><polygon fill="#fff" points="7.282 56.807 4.282 65.807 6.282 65.807 9.282 56.807"/><polygon fill="#fff" points="15.282 56.807 13.282 56.807 16.282 65.807 18.282 65.807"/><polygon fill="#fff" points="87.282 62.807 84.282 65.807 86.282 65.807 88.282 63.807"/><rect width="2" height="5" x="39.334" y="67.807" fill="#d9d4d8"/><rect width="2" height="5" x="18.334" y="67.807" fill="#d9d4d8"/><rect width="2" height="5" x="80.334" y="67.807" fill="#d9d4d8"/><rect width="2" height="5" x="59.334" y="67.807" fill="#d9d4d8"/><rect width="2" height="2" x="49.334" y="60.807" fill="#ececed" transform="rotate(90 50.334 61.807)"/><path fill="#7a6876" d="M47.834 56.807c-.828 0-1.5.672-1.5 1.5v2c0-.828.672-1.5 1.5-1.5s1.5.672 1.5 1.5v-2C49.334 57.478 48.663 56.807 47.834 56.807zM52.834 56.807c-.828 0-1.5.672-1.5 1.5v2c0-.828.672-1.5 1.5-1.5s1.5.672 1.5 1.5v-2C54.334 57.478 53.663 56.807 52.834 56.807z"/><g><path fill="#7a6876" d="M48.334,70.807c-1.105,0-2,0.895-2,2v2c0-1.105,0.895-2,2-2s2,0.895,2,2v-2    C50.334,71.702,49.439,70.807,48.334,70.807z"/></g><g><path fill="#7a6876" d="M52.334,70.807c-1.105,0-2,0.895-2,2v2c0-1.105,0.895-2,2-2s2,0.895,2,2v-2    C54.334,71.702,53.439,70.807,52.334,70.807z"/></g><g><path fill="#7a6876" d="M62.584,75.807c-0.69,0-1.25,0.56-1.25,1.25v2c0-0.69,0.56-1.25,1.25-1.25s1.25,0.56,1.25,1.25v-2    C63.834,76.366,63.275,75.807,62.584,75.807z"/></g><g><path fill="#7a6876" d="M72.084,75.807c-0.69,0-1.25,0.56-1.25,1.25v2c0-0.69,0.56-1.25,1.25-1.25s1.25,0.56,1.25,1.25v-2    C73.334,76.366,72.775,75.807,72.084,75.807z"/></g><g><path fill="#7a6876" d="M79.084,75.807c-0.69,0-1.25,0.56-1.25,1.25v2c0-0.69,0.56-1.25,1.25-1.25s1.25,0.56,1.25,1.25v-2    C80.334,76.366,79.775,75.807,79.084,75.807z"/></g><g><path fill="#594555" d="M98.282,95.182h-1.5v-25.5v-1v-2.471h0.5c0.276,0,0.5-0.224,0.5-0.5s-0.224-0.5-0.5-0.5H96.65l-2.667-8     h0.308c0.276,0,0.5-0.224,0.5-0.5s-0.224-0.5-0.5-0.5h-1.002h-0.5v-2.5v-2c0-0.276-0.224-0.5-0.5-0.5s-0.5,0.224-0.5,0.5v1.5h-5     v-1.5c0-0.276-0.224-0.5-0.5-0.5s-0.5,0.224-0.5,0.5v2v2.5h-0.51h-0.984c-0.276,0-0.5,0.224-0.5,0.5s0.224,0.5,0.5,0.5h0.29     l-2.661,7.971h-0.641c-0.276,0-0.5,0.224-0.5,0.5s0.224,0.5,0.5,0.5h0.5v1h-22v-25.5v-1v-2c0-0.035-0.013-0.065-0.02-0.098     c-0.003-0.018,0.002-0.036-0.004-0.053l-1.988-6.294c0.002-0.019,0.011-0.036,0.011-0.055v-3.5v-2v-2c0-0.276-0.224-0.5-0.5-0.5     s-0.5,0.224-0.5,0.5v1.5h-0.923l-1.895-6h0.318c0.276,0,0.5-0.224,0.5-0.5s-0.224-0.5-0.5-0.5h-0.485v-2.471     c0-0.001,0-0.001,0-0.002c0-0.001,0-0.001,0-0.002l-0.015-2c-0.002-0.274-0.226-0.496-0.5-0.496c-0.001,0-0.002,0-0.004,0     c-0.276,0.002-0.498,0.228-0.496,0.504l0.011,1.496h-2.011v-5.529c0-0.276-0.224-0.5-0.5-0.5s-0.5,0.224-0.5,0.5v5.529h-1.989     l-0.011-1.504c-0.002-0.274-0.226-0.496-0.5-0.496c-0.001,0-0.002,0-0.004,0c-0.276,0.002-0.498,0.228-0.496,0.504l0.015,2v2.467     h-0.515c-0.276,0-0.5,0.224-0.5,0.5s0.224,0.5,0.5,0.5H46.6l-1.895,6h-0.923v-1.5c0-0.276-0.224-0.5-0.5-0.5s-0.5,0.224-0.5,0.5     v2v2v3.5c0,0.02,0.009,0.036,0.011,0.055l-1.988,6.294c-0.005,0.017,0,0.035-0.004,0.053c-0.007,0.033-0.02,0.063-0.02,0.098v2v1     v25.5h-22v-0.971h0.528c0.276,0,0.5-0.224,0.5-0.5s-0.224-0.5-0.5-0.5h-0.653l-2.667-8h0.308c0.276,0,0.5-0.224,0.5-0.5     s-0.224-0.5-0.5-0.5h-1.002h-0.5v-2.5v-2c0-0.276-0.224-0.5-0.5-0.5s-0.5,0.224-0.5,0.5v1.5h-5v-1.5c0-0.276-0.224-0.5-0.5-0.5     s-0.5,0.224-0.5,0.5v2v2.5h-0.51H6.303c-0.276,0-0.5,0.224-0.5,0.5s0.224,0.5,0.5,0.5h0.29l-2.671,8H3.291     c-0.276,0-0.5,0.224-0.5,0.5s0.224,0.5,0.5,0.5h0.491v2.471v1v25.5h-1.5c-0.276,0-0.5,0.224-0.5,0.5s0.224,0.5,0.5,0.5h2h14h23     h18h23h14h2c0.276,0,0.5-0.224,0.5-0.5S98.559,95.182,98.282,95.182z M88.775,54.211h1v1.971h-1V54.211z M91.789,56.182h-1.015     v-1.971h1.015V56.182z M87.775,54.211v1.971h-0.985v-1.971H87.775z M92.929,57.211l2.667,8h-1.313h-1.784l-2.854-2.881     c-0.094-0.095-0.222-0.148-0.354-0.148c-0.001,0-0.001,0-0.001,0c-0.133,0-0.261,0.053-0.354,0.147l-2.868,2.882h-1.639     c-0.047-0.014-0.094-0.029-0.145-0.029h-1.304l2.661-7.971H92.929z M75.782,81.182v-4.25c0-0.413,0.337-0.75,0.75-0.75     s0.75,0.337,0.75,0.75v4.25H75.782z M78.282,76.932c0-0.413,0.337-0.75,0.75-0.75s0.75,0.337,0.75,0.75v4.25h-1.5V76.932z      M79.032,75.182c-0.49,0-0.932,0.204-1.25,0.529c-0.318-0.326-0.76-0.529-1.25-0.529c-0.965,0-1.75,0.785-1.75,1.75v4.25h-1     v-4.25c0-0.965-0.785-1.75-1.75-1.75c-0.49,0-0.932,0.204-1.25,0.529c-0.318-0.326-0.76-0.529-1.25-0.529     c-0.965,0-1.75,0.785-1.75,1.75v4.25h-1v-4.25c0-0.965-0.785-1.75-1.75-1.75c-0.49,0-0.932,0.204-1.25,0.529     c-0.318-0.326-0.76-0.529-1.25-0.529c-0.965,0-1.75,0.785-1.75,1.75v4.25h-1v-8h22v8h-1v-4.25     C80.782,75.967,79.997,75.182,79.032,75.182z M68.782,81.182v-4.25c0-0.413,0.337-0.75,0.75-0.75s0.75,0.337,0.75,0.75v4.25     H68.782z M71.282,76.932c0-0.413,0.337-0.75,0.75-0.75s0.75,0.337,0.75,0.75v4.25h-1.5V76.932z M61.782,81.182v-4.25     c0-0.413,0.337-0.75,0.75-0.75s0.75,0.337,0.75,0.75v4.25H61.782z M64.282,76.932c0-0.413,0.337-0.75,0.75-0.75     s0.75,0.337,0.75,0.75v4.25h-1.5V76.932z M46.782,80.182v-7.5c0-0.827,0.673-1.5,1.5-1.5s1.5,0.673,1.5,1.5v7.5H46.782z      M50.782,72.682c0-0.827,0.673-1.5,1.5-1.5s1.5,0.673,1.5,1.5v7.5h-3V72.682z M52.282,70.182c-0.821,0-1.544,0.403-2,1.015     c-0.456-0.612-1.179-1.015-2-1.015c-1.379,0-2.5,1.121-2.5,2.5v7.5h-4v-7.5v-5v-6.5h4v4h-0.5c-0.276,0-0.5,0.224-0.5,0.5v2     c0,0.276,0.224,0.5,0.5,0.5h10c0.276,0,0.5-0.224,0.5-0.5v-2c0-0.276-0.224-0.5-0.5-0.5h-0.5v-4h4v6.5v5v7.5h-4v-7.5     C54.782,71.303,53.661,70.182,52.282,70.182z M34.782,81.182v-4.25c0-0.413,0.337-0.75,0.75-0.75s0.75,0.337,0.75,0.75v4.25     H34.782z M37.282,76.932c0-0.413,0.337-0.75,0.75-0.75s0.75,0.337,0.75,0.75v4.25h-1.5V76.932z M38.032,75.182     c-0.49,0-0.932,0.204-1.25,0.529c-0.318-0.326-0.76-0.529-1.25-0.529c-0.965,0-1.75,0.785-1.75,1.75v4.25h-1v-4.25     c0-0.965-0.785-1.75-1.75-1.75c-0.49,0-0.932,0.204-1.25,0.529c-0.318-0.326-0.76-0.529-1.25-0.529     c-0.965,0-1.75,0.785-1.75,1.75v4.25h-1v-4.25c0-0.965-0.785-1.75-1.75-1.75c-0.49,0-0.932,0.204-1.25,0.529     c-0.318-0.326-0.76-0.529-1.25-0.529c-0.965,0-1.75,0.785-1.75,1.75v4.25h-1v-8h22v8h-1v-4.25     C39.782,75.967,38.997,75.182,38.032,75.182z M27.782,81.182v-4.25c0-0.413,0.337-0.75,0.75-0.75s0.75,0.337,0.75,0.75v4.25     H27.782z M30.282,76.932c0-0.413,0.337-0.75,0.75-0.75s0.75,0.337,0.75,0.75v4.25h-1.5V76.932z M20.782,81.182v-4.25     c0-0.413,0.337-0.75,0.75-0.75s0.75,0.337,0.75,0.75v4.25H20.782z M23.282,76.932c0-0.413,0.337-0.75,0.75-0.75     s0.75,0.337,0.75,0.75v4.25h-1.5V76.932z M41.782,39.182h0.5h2h1c0.276,0,0.5-0.224,0.5-0.5v-2.5h1.417     c0.003,0,0.005-0.002,0.008-0.002c0.025-0.001,0.048-0.01,0.072-0.015c0.174-0.029,0.319-0.14,0.383-0.3     c0.001-0.002,0.002-0.003,0.003-0.005l2.604-6.756l2.459,6.747c0.001,0.003,0.004,0.004,0.006,0.007     c0.033,0.086,0.091,0.155,0.163,0.211c0.016,0.012,0.03,0.022,0.047,0.032c0.076,0.046,0.159,0.079,0.254,0.079h1.584v2.495     c0,0.002-0.001,0.003-0.001,0.005c0,0.276,0.224,0.5,0.5,0.5h1.001h2h0.5v0.092c-0.157-0.056-0.324-0.092-0.5-0.092     c-0.385,0-0.734,0.15-1,0.39c-0.266-0.24-0.615-0.39-1-0.39c-0.827,0-1.5,0.673-1.5,1.5v1c0,0.276,0.224,0.5,0.5,0.5     s0.5-0.224,0.5-0.5v-1c0-0.275,0.225-0.5,0.5-0.5s0.5,0.225,0.5,0.5v1c0,0.276,0.224,0.5,0.5,0.5s0.5-0.224,0.5-0.5v-1     c0-0.275,0.225-0.5,0.5-0.5s0.5,0.225,0.5,0.5v1v5.5h-5.5h-6h-5.5v-5.5v-1c0-0.275,0.225-0.5,0.5-0.5s0.5,0.225,0.5,0.5v1     c0,0.276,0.224,0.5,0.5,0.5s0.5-0.224,0.5-0.5v-1c0-0.275,0.225-0.5,0.5-0.5s0.5,0.225,0.5,0.5v1c0,0.276,0.224,0.5,0.5,0.5     s0.5-0.224,0.5-0.5v-1c0-0.827-0.673-1.5-1.5-1.5c-0.385,0-0.734,0.15-1,0.39c-0.266-0.24-0.615-0.39-1-0.39     c-0.176,0-0.343,0.036-0.5,0.092V39.182z M51.782,67.182v-1h1v1H51.782z M49.782,67.182v-1h1v1H49.782z M47.782,67.182v-1h1v1     H47.782z M45.782,67.182v-1h0.5h0.5v1H45.782z M46.782,58.182c0-0.552,0.448-1,1-1s1,0.448,1,1v2.5v2v2.5h-2V58.182z      M50.782,65.182h-1v-2h1V65.182z M50.782,62.182h-1v-1h1V62.182z M53.782,66.182h0.5h0.5v1h-1V66.182z M51.782,65.182v-2.5v-2     v-2.5c0-0.552,0.448-1,1-1s1,0.448,1,1v7H51.782z M52.782,56.182c-1.103,0-2,0.897-2,2v2h-1v-2c0-1.103-0.897-2-2-2s-2,0.897-2,2     v2h-4v-12h5v1.5c0,0.189,0.107,0.362,0.276,0.447l1.724,0.861v1.691c0,0.276,0.224,0.5,0.5,0.5h0.5v2c-0.276,0-0.5,0.224-0.5,0.5     s0.224,0.5,0.5,0.5h1c0.276,0,0.5-0.224,0.5-0.5s-0.224-0.5-0.5-0.5v-2h0.5c0.276,0,0.5-0.224,0.5-0.5V50.99l1.724-0.861     c0.169-0.085,0.276-0.258,0.276-0.447v-1.5h5v12h-4v-2C54.782,57.079,53.885,56.182,52.782,56.182z M49.782,52.182v-1.5     c0-0.189-0.107-0.362-0.276-0.447l-1.724-0.861v-1.191h5v1.191l-1.724,0.861c-0.169,0.085-0.276,0.258-0.276,0.447v1.5H49.782z      M81.782,68.182v0.5v1v2.5h-22v-4H81.782z M56.782,27.182v1.5v0.424l-0.608-1.924H56.782z M47.797,17.211h0.985v1.971h-0.985     V17.211z M50.782,17.211v1.971h-1v-1.971H50.782z M52.797,19.182h-1.015v-1.971h1.015V19.182z M43.782,28.682v-1.5h0.608     l-0.608,1.924V28.682z M47.639,20.211h5.286L58.6,38.182h-2.817v-2.5c0-0.276-0.224-0.5-0.5-0.5h-1.734l-2.796-7.671     c-0.071-0.196-0.257-0.327-0.465-0.329c-0.002,0-0.003,0-0.005,0c-0.207,0-0.393,0.127-0.467,0.32l-2.96,7.68h-1.573     c-0.276,0-0.5,0.224-0.5,0.5v2.5h-2.817L47.639,20.211z M40.782,68.182v4h-22v-2.5v-1v-0.5H40.782z M10.782,54.211h1v1.971h-1     V54.211z M13.797,56.182h-1.015v-1.971h1.015V56.182z M9.782,54.211v1.971H8.797v-1.971H9.782z M7.648,57.211h7.289l2.667,8H16.5     h-1.994l-2.854-2.881c-0.094-0.095-0.222-0.148-0.354-0.148c-0.001,0-0.001,0-0.001,0c-0.133,0-0.261,0.053-0.354,0.147     l-2.868,2.882H6.5H4.977L7.648,57.211z M4.782,69.682v-1c0-0.275,0.225-0.5,0.5-0.5s0.5,0.225,0.5,0.5v1     c0,0.276,0.224,0.5,0.5,0.5s0.5-0.224,0.5-0.5v-1c0-0.275,0.225-0.5,0.5-0.5s0.5,0.225,0.5,0.5v1c0,0.276,0.224,0.5,0.5,0.5     s0.5-0.224,0.5-0.5v-1c0-0.827-0.673-1.5-1.5-1.5c-0.385,0-0.734,0.15-1,0.39c-0.266-0.24-0.615-0.39-1-0.39     c-0.176,0-0.343,0.036-0.5,0.092v-1.063H6.5h1.782c0.133,0,0.261-0.053,0.354-0.147l2.659-2.672l2.646,2.671     c0.094,0.095,0.222,0.148,0.355,0.148H16.5h1.282v1.063c-0.157-0.056-0.324-0.092-0.5-0.092c-0.385,0-0.734,0.15-1,0.39     c-0.266-0.24-0.615-0.39-1-0.39c-0.827,0-1.5,0.673-1.5,1.5v1c0,0.276,0.224,0.5,0.5,0.5s0.5-0.224,0.5-0.5v-1     c0-0.275,0.225-0.5,0.5-0.5s0.5,0.225,0.5,0.5v1c0,0.276,0.224,0.5,0.5,0.5s0.5-0.224,0.5-0.5v-1c0-0.275,0.225-0.5,0.5-0.5     s0.5,0.225,0.5,0.5v1v3v22.5H15.73v-3.511c0-2.481-2.019-4.5-4.5-4.5s-4.5,2.019-4.5,4.5v3.511H4.782V69.682z M7.73,95.171v-3.5     c0-1.93,1.57-3.5,3.5-3.5s3.5,1.57,3.5,3.5v3.5H7.73z M18.782,82.182h1.5h2.5h2.5h2h2.5h2.5h2h2.5h2.5h1.5v13h-1v-4.006     c0-1.654-1.346-3-3-3s-3,1.346-3,3v4.006h-1v-4.006c0-1.654-1.346-3-3-3s-3,1.346-3,3v4.006h-1v-4.006c0-1.654-1.346-3-3-3     s-3,1.346-3,3v4.006h-1V82.182z M38.782,95.182h-4v-4.006c0-1.103,0.897-2,2-2s2,0.897,2,2V95.182z M31.782,95.182h-4v-4.006     c0-1.103,0.897-2,2-2s2,0.897,2,2V95.182z M24.782,95.182h-4v-4.006c0-1.103,0.897-2,2-2s2,0.897,2,2V95.182z M41.782,81.182h4.5     h4h4h4.5v14H55.73v-6.511c0-3.032-2.468-5.5-5.5-5.5s-5.5,2.468-5.5,5.5v6.511h-2.947V81.182z M45.73,95.171v-6.5     c0-2.481,2.019-4.5,4.5-4.5s4.5,2.019,4.5,4.5v6.5H45.73z M59.782,82.182h1.5h2.5h2.5h2h2.5h2.5h2h2.5h2.5h1.5v13h-1v-4.006     c0-1.654-1.346-3-3-3s-3,1.346-3,3v4.006h-1v-4.006c0-1.654-1.346-3-3-3s-3,1.346-3,3v4.006h-1v-4.006c0-1.654-1.346-3-3-3     c-1.654,0-3,1.346-3,3v4.006h-1V82.182z M79.782,95.182h-4v-4.006c0-1.103,0.897-2,2-2s2,0.897,2,2V95.182z M72.782,95.182h-4     v-4.006c0-1.103,0.897-2,2-2s2,0.897,2,2V95.182z M65.782,95.182h-4v-4.006c0-1.103,0.897-2,2-2c1.103,0,2,0.897,2,2V95.182z      M85.73,95.171v-3.5c0-1.93,1.57-3.5,3.5-3.5s3.5,1.57,3.5,3.5v3.5H85.73z M93.73,95.182v-3.511c0-2.481-2.019-4.5-4.5-4.5     s-4.5,2.019-4.5,4.5v3.511h-1.947v-22.5v-3v-1c0-0.275,0.225-0.5,0.5-0.5s0.5,0.225,0.5,0.5v1c0,0.276,0.224,0.5,0.5,0.5     s0.5-0.224,0.5-0.5v-1c0-0.275,0.225-0.5,0.5-0.5s0.5,0.225,0.5,0.5v1c0,0.276,0.224,0.5,0.5,0.5s0.5-0.224,0.5-0.5v-1     c0-0.827-0.673-1.5-1.5-1.5c-0.385,0-0.734,0.15-1,0.39c-0.266-0.24-0.615-0.39-1-0.39c-0.176,0-0.343,0.036-0.5,0.092v-1.063     h3.492c0.133,0,0.261-0.053,0.354-0.147l2.659-2.672l2.646,2.671c0.094,0.095,0.222,0.148,0.355,0.148h1.993h1.5v1.063     c-0.157-0.056-0.324-0.092-0.5-0.092c-0.385,0-0.734,0.15-1,0.39c-0.266-0.24-0.615-0.39-1-0.39c-0.827,0-1.5,0.673-1.5,1.5v1     c0,0.276,0.224,0.5,0.5,0.5s0.5-0.224,0.5-0.5v-1c0-0.275,0.225-0.5,0.5-0.5s0.5,0.225,0.5,0.5v1c0,0.276,0.224,0.5,0.5,0.5     s0.5-0.224,0.5-0.5v-1c0-0.275,0.225-0.5,0.5-0.5s0.5,0.225,0.5,0.5v1v25.5H93.73z"/><path fill="#594555" d="M50.282,46.182c1.93,0,3.5-1.57,3.5-3.5s-1.57-3.5-3.5-3.5s-3.5,1.57-3.5,3.5S48.353,46.182,50.282,46.182z      M50.282,40.182c1.379,0,2.5,1.121,2.5,2.5s-1.121,2.5-2.5,2.5s-2.5-1.121-2.5-2.5S48.903,40.182,50.282,40.182z"/><path fill="#594555" d="M50.282 43.182c.009 0 .017-.005.026-.005.009 0 .017.005.026.005h1.447c.276 0 .5-.224.5-.5s-.224-.5-.5-.5h-1v-.5c0-.276-.224-.5-.5-.5s-.5.224-.5.5v1C49.782 42.958 50.006 43.182 50.282 43.182zM93.592 76.446c-.537-1.884-2.255-3.275-4.309-3.275-2.053 0-3.77 1.39-4.308 3.273-.032.057-.051.12-.058.188-.08.335-.133.68-.133 1.04v7c0 .276.224.5.5.5h8c.276 0 .5-.224.5-.5v-7c0-.363-.055-.711-.136-1.049C93.639 76.558 93.621 76.5 93.592 76.446zM85.782 77.671c0-.168.027-.328.05-.489h.949v1h-.999V77.671zM87.781 77.182h1v1h-1V77.182zM88.781 79.182v4.989h-1v-4.989H88.781zM89.781 79.182h1v4.989h-1V79.182zM89.781 78.182v-1h1v1H89.781zM91.781 77.182h.951c.023.161.05.322.05.489v.511h-1.001V77.182zM89.282 74.171c1.395 0 2.593.827 3.155 2.011h-6.31C86.689 74.997 87.887 74.171 89.282 74.171zM85.782 79.182h.999v4.989h-.999V79.182zM91.781 84.171v-4.989h1.001v4.989H91.781zM7.282 85.171h8c.276 0 .5-.224.5-.5v-7c0-.363-.055-.711-.136-1.049-.008-.064-.025-.122-.055-.176-.537-1.884-2.255-3.275-4.309-3.275-2.053 0-3.77 1.39-4.308 3.273-.032.057-.051.12-.058.188-.08.335-.133.68-.133 1.04v7C6.782 84.947 7.006 85.171 7.282 85.171zM14.782 77.671v.511h-1.001v-1h.951C14.756 77.343 14.782 77.503 14.782 77.671zM12.781 78.182h-1v-1h1V78.182zM11.781 79.182h1v4.989h-1V79.182zM10.781 84.171h-1v-4.989h1V84.171zM10.781 78.182h-1v-1h1V78.182zM8.781 78.182H7.782v-.511c0-.168.027-.328.05-.489h.949V78.182zM7.782 79.182h.999v4.989H7.782V79.182zM13.781 84.171v-4.989h1.001v4.989H13.781zM11.282 74.171c1.395 0 2.593.827 3.155 2.011h-6.31C8.689 74.997 9.887 74.171 11.282 74.171zM61.282 86.671h2.5 2.5c.276 0 .5-.224.5-.5v-2.5c0-.276-.224-.5-.5-.5h-2.5-2.5c-.276 0-.5.224-.5.5v2.5C60.782 86.447 61.006 86.671 61.282 86.671zM65.782 85.671h-1.5v-1.5h1.5V85.671zM61.782 84.171h1.5v1.5h-1.5V84.171zM68.282 86.671h2.5 2.5c.276 0 .5-.224.5-.5v-2.5c0-.276-.224-.5-.5-.5h-2.5-2.5c-.276 0-.5.224-.5.5v2.5C67.782 86.447 68.006 86.671 68.282 86.671zM72.782 85.671h-1.5v-1.5h1.5V85.671zM68.782 84.171h1.5v1.5h-1.5V84.171zM75.282 86.671h2.5 2.5c.276 0 .5-.224.5-.5v-2.5c0-.276-.224-.5-.5-.5h-2.5-2.5c-.276 0-.5.224-.5.5v2.5C74.782 86.447 75.006 86.671 75.282 86.671zM79.782 85.671h-1.5v-1.5h1.5V85.671zM75.782 84.171h1.5v1.5h-1.5V84.171zM10.282 70.182h2c.276 0 .5-.224.5-.5v-3c0-.827-.673-1.5-1.5-1.5s-1.5.673-1.5 1.5v3C9.782 69.958 10.006 70.182 10.282 70.182zM10.782 66.682c0-.275.225-.5.5-.5s.5.225.5.5v2.5h-1V66.682zM88.282 70.182h2c.276 0 .5-.224.5-.5v-3c0-.827-.673-1.5-1.5-1.5s-1.5.673-1.5 1.5v3C87.782 69.958 88.006 70.182 88.282 70.182zM88.782 66.682c0-.275.225-.5.5-.5s.5.225.5.5v2.5h-1V66.682zM20.282 86.671h2.5 2.5c.276 0 .5-.224.5-.5v-2.5c0-.276-.224-.5-.5-.5h-2.5-2.5c-.276 0-.5.224-.5.5v2.5C19.782 86.447 20.006 86.671 20.282 86.671zM24.782 85.671h-1.5v-1.5h1.5V85.671zM20.782 84.171h1.5v1.5h-1.5V84.171zM27.282 86.671h2.5 2.5c.276 0 .5-.224.5-.5v-2.5c0-.276-.224-.5-.5-.5h-2.5-2.5c-.276 0-.5.224-.5.5v2.5C26.782 86.447 27.006 86.671 27.282 86.671zM31.782 85.671h-1.5v-1.5h1.5V85.671zM27.782 84.171h1.5v1.5h-1.5V84.171zM34.282 86.671h2.5 2.5c.276 0 .5-.224.5-.5v-2.5c0-.276-.224-.5-.5-.5h-2.5-2.5c-.276 0-.5.224-.5.5v2.5C33.782 86.447 34.006 86.671 34.282 86.671zM38.782 85.671h-1.5v-1.5h1.5V85.671zM34.782 84.171h1.5v1.5h-1.5V84.171z"/></g></svg>