<svg xmlns="http://www.w3.org/2000/svg" xmlns:xlink="http://www.w3.org/1999/xlink" id="Layer_1" enable-background="new 0 0 100 100" viewBox="0 0 100 100"><symbol id="navbar_x5F_icon_x5F_back_1_" viewBox="-1 -24 25 24"><path fill="none" stroke="#fff" stroke-miterlimit="10" stroke-width="2" d="M18-19c0-0.4,0-0.5-0.3-0.3l-12,7c-0.3,0.2-0.2,0.5,0.1,0.6l11.9,7C18-4.5,18-4.7,18-5V-19z" opacity=".9"/><rect width="24" height="24" y="-24" fill="none"/><rect width="25" height="24" x="-1" y="-24" fill="none" display="none"/></symbol><symbol id="navbar_x5F_icon_x5F_home_1_" viewBox="0 -24 24 24"><g opacity=".9"><g id="XMLID_809_"><circle id="XMLID_814_" cx="12" cy="-12" r="6.9" fill="none" stroke="#fff" stroke-miterlimit="10" stroke-width="1.803"/></g></g><rect width="24" height="24" y="-24" fill="none"/><rect width="24" height="23" y="-24" fill="none" display="none"/></symbol><symbol id="navbar_x5F_icon_x5F_recents_1_" viewBox="0 -24 24 24"><path fill="none" stroke="#fff" stroke-miterlimit="10" stroke-width="2" d="M19-5.7C19-5.4,18.6-5,18.2-5H5.8C5.4-5,5-5.4,5-5.7v-12.6C5-18.6,5.4-19,5.8-19h12.4      c0.4,0,0.8,0.4,0.8,0.7V-5.7z" opacity=".9"/><rect width="24" height="24" y="-24" fill="none"/><rect width="24" height="23" y="-24" fill="none" display="none"/></symbol><symbol id="sysbar_x5F_status_2" viewBox="0 -24 360 24"><use id="XMLID_495_" width="360" height="24" y="-24" overflow="visible" xlink:href="#sysbar_x5F_status_x5F_used_x5F_light"/></symbol><symbol id="sysbar_x5F_status_x5F_used_x5F_light" viewBox="0 -24 360 24"><rect width="360" height="24" y="-24" fill="#010101" fill-opacity="0"/><rect width="40" height="16" x="312" y="-21" fill="none" opacity=".9"/><path fill="#fff" d="M266-19l8.8,10.9C274.5-7.8,271.1-5,266-5s-8.5-2.8-8.8-3.1L266-19L266-19L266-19L266-19L266-19z" opacity=".9"/><rect width="16" height="16" x="258" y="-20" fill="none"/><polygon fill="#fff" points="277 -19 291 -19 291 -5" opacity=".9"/><rect width="16" height="16" x="276" y="-20" fill="none"/><g><rect width="16" height="16" x="296" y="-20" fill="none"/><path fill="#fff" d="M306-6v1h-3v-1h-3v-13h9v13H306z" opacity=".9"/></g></symbol><path id="XMLID_2387_" fill="#594454" d="M20.5,65.1c-0.3,0-0.5-0.2-0.5-0.5V63c0-0.3,0.2-0.5,0.5-0.5S21,62.7,21,63v1.6C21,64.8,20.7,65.1,20.5,65.1z   "/><path fill="#f1f1f2" d="M57.5,56.5h-15c0,1.7-1.3,3-3,3l0,7h21l0-7C58.8,59.5,57.5,58.2,57.5,56.5z"/><path fill="#d9d4d8" d="M42.5,58.5h15c0,1.7,0-0.3,0-2h-15C42.5,58.2,42.5,60.2,42.5,58.5z"/><path fill="#d9d4d8" d="M45 56.5h-2.5c0 1.7-1.3 3-3 3l0 7H42l0-7C43.6 59.5 45 58.2 45 56.5zM55 56.5h2.5c0 1.7 1.3 3 3 3l0 7h-2.5l0-7C56.3 59.5 55 58.2 55 56.5z"/><rect id="XMLID_2779_" width="3" height="3" x="54.5" y="63.5" fill="#f1f1f2"/><rect id="XMLID_2778_" width="7" height="26" x="72.5" y="64.5" fill="#f1f1f2" transform="rotate(-180 75.953 77.525)"/><rect width="2" height="26" x="77.5" y="64.5" fill="#fff"/><rect id="XMLID_2777_" width="7" height="26" x="20.5" y="64.5" fill="#f1f1f2"/><rect width="2" height="26" x="25.5" y="64.5" fill="#fff"/><rect id="XMLID_2776_" width="9" height="17" x="63.5" y="73.5" fill="#f1f1f2" transform="rotate(-180 67.953 82.025)"/><rect width="2" height="17" x="63.5" y="73.5" fill="#d9d4d8"/><rect width="2" height="17" x="70.5" y="73.5" fill="#d9d4d8"/><rect id="XMLID_2775_" width="9" height="22" x="45.5" y="68.5" fill="#f1f1f2"/><rect width="9" height="2" x="45.5" y="68.5" fill="#d9d4d8"/><rect width="9" height="2" x="45.5" y="71.5" fill="#d9d4d8"/><rect width="2" height="22" x="45.5" y="68.5" fill="#d9d4d8"/><rect width="2" height="22" x="52.5" y="68.5" fill="#d9d4d8"/><path id="XMLID_2774_" fill="#8e7f8b" d="M45.5,90.5V78c0-2.5,2-4.5,4.5-4.5h0c2.5,0,4.5,2,4.5,4.5v12.5"/><path id="XMLID_2773_" fill="#f1f1f2" d="M47.9,44.5v-4c0-1.1,0.9-2,2-2h0c1.1,0,2,0.9,2,2v4"/><rect id="XMLID_2772_" width="19" height="2" x="40.5" y="66.5" fill="#f1f1f2"/><rect width="2" height="2" x="57.5" y="66.5" fill="#fff"/><rect width="2" height="2" x="40.5" y="66.5" fill="#fff"/><polygon id="XMLID_2771_" fill="#f1f1f2" points="40.5 68.5 40.5 67.5 36.5 67.5 36.5 71.5 42.5 71.5 42.5 68.5"/><polygon fill="#d9d4d8" points="40.5 68.5 40.5 67.5 36.5 67.5 36.5 69.5 40.5 69.5 40.5 70.5 42.5 70.5 42.5 68.5"/><rect width="2" height="1" x="38.5" y="67.5" fill="#d9d4d8"/><rect width="2" height="3" x="40.5" y="68.5" fill="#d9d4d8"/><polygon id="XMLID_2770_" fill="#f1f1f2" points="59.5 68.5 59.5 67.5 63.5 67.5 63.5 71.5 57.5 71.5 57.5 68.5"/><polygon fill="#d9d4d8" points="59.5 67.5 59.5 68.5 57.5 68.5 57.5 70.5 59.5 70.5 59.5 69.5 63.5 69.5 63.5 67.5"/><rect width="2" height="3" x="57.5" y="68.5" fill="#d9d4d8"/><rect width="2" height="1" x="59.5" y="67.5" fill="#d9d4d8"/><rect id="XMLID_2769_" width="9" height="4" x="27.5" y="69.5" fill="#f1f1f2"/><rect id="XMLID_2768_" width="9" height="4" x="63.5" y="69.5" fill="#f1f1f2"/><rect width="2" height="4" x="34.5" y="69.5" fill="#d9d4d8"/><rect width="2" height="4" x="70.5" y="69.5" fill="#d9d4d8"/><rect width="2" height="4" x="27.5" y="69.5" fill="#d9d4d8"/><rect width="2" height="4" x="63.5" y="69.5" fill="#d9d4d8"/><path id="XMLID_2456_" fill="#f1f1f2" d="M42.5,54v-2c0-4.1,3.4-7.5,7.5-7.5h0c4.1,0,7.5,3.4,7.5,7.5v2"/><path fill="#d9d4d8" d="M51,44.6c-0.3,0-0.7-0.1-1-0.1h0c-4.1,0-7.5,3.4-7.5,7.5v2h2v-2C44.5,48.2,47.3,45.1,51,44.6z"/><path fill="#fff" d="M50,44.5L50,44.5c-0.3,0-0.7,0-1,0.1c3.7,0.5,6.5,3.6,6.5,7.4v2h2v-2C57.5,47.9,54.1,44.5,50,44.5z"/><path id="XMLID_2455_" fill="#f1f1f2" d="M36.4,67.6v-6c0-1.1,0.9-2,2-2h0c1.1,0,2,0.9,2,2v6H36.4z"/><rect id="XMLID_2454_" width="3" height="22" x="42.5" y="68.5" fill="#f1f1f2"/><rect id="XMLID_2453_" width="3" height="19" x="36.5" y="71.5" fill="#f1f1f2"/><rect id="XMLID_2452_" width="3" height="19" x="39.5" y="71.5" fill="#f1f1f2"/><rect width="7" height="1.5" x="20.5" y="64.5" fill="#d9d4d8"/><rect width="7" height="1.5" x="20.5" y="67.5" fill="#d9d4d8"/><rect width="7" height="1.5" x="20.5" y="71.5" fill="#d9d4d8"/><rect width="7" height="1.5" x="20.5" y="80.5" fill="#d9d4d8"/><rect width="7" height="1.5" x="72.5" y="64.5" fill="#d9d4d8"/><rect width="7" height="1.5" x="72.5" y="67.5" fill="#d9d4d8"/><rect width="7" height="1.5" x="72.5" y="71.5" fill="#d9d4d8"/><rect width="7" height="1.5" x="72.5" y="80.5" fill="#d9d4d8"/><rect id="XMLID_2451_" width="9" height="17" x="27.5" y="73.5" fill="#f1f1f2"/><rect width="9" height="2" x="27.5" y="73.5" fill="#d9d4d8"/><rect width="9" height="2" x="63.5" y="73.5" fill="#d9d4d8"/><rect width="2" height="17" x="27.5" y="73.5" fill="#d9d4d8"/><rect width="2" height="17" x="34.5" y="73.5" fill="#d9d4d8"/><rect id="XMLID_2450_" width="3" height="19" x="60.5" y="71.5" fill="#f1f1f2" transform="rotate(-180 61.953 81.025)"/><rect id="XMLID_2449_" width="19" height="2" x="40.5" y="54.5" fill="#f1f1f2"/><rect width="2" height="2" x="40.5" y="54.5" fill="#d9d4d8"/><rect width="2" height="2" x="57.5" y="54.5" fill="#fff"/><rect id="XMLID_2448_" width="3" height="3" x="42.5" y="63.5" fill="#f1f1f2"/><rect width="1.5" height="3" x="44" y="63.5" fill="#fff"/><rect width="1.5" height="3" x="56" y="63.5" fill="#fff"/><rect id="XMLID_2447_" width="3" height="22" x="54.5" y="68.5" fill="#f1f1f2"/><rect width="1.5" height="22" x="44" y="68.5" fill="#fff"/><rect width="1.5" height="19" x="38" y="71.5" fill="#fff"/><rect width="1.5" height="19" x="62" y="71.5" fill="#fff"/><rect width="1.5" height="22" x="56" y="68.5" fill="#fff"/><rect id="XMLID_2446_" width="3" height="19" x="57.5" y="71.5" fill="#f1f1f2"/><path id="XMLID_2445_" fill="#f1f1f2" d="M22.4,64.5V60c0-0.8,0.7-1.5,1.5-1.5h0c0.8,0,1.5,0.7,1.5,1.5v4.5H22.4z"/><path id="XMLID_2444_" fill="#f1f1f2" d="M59.4,67.5v-6c0-1.1,0.9-2,2-2h0c1.1,0,2,0.9,2,2v6H59.4z"/><path fill="#fff" d="M38.4 59.5c-.3 0-.5.1-.8.1.7.3 1.3 1 1.3 1.9v6h1.5v-6C40.5 60.4 39.6 59.5 38.4 59.5zM61.4 59.5c-.3 0-.5.1-.8.1.7.3 1.3 1 1.3 1.9v6h1.5v-6C63.5 60.4 62.6 59.5 61.4 59.5z"/><path id="XMLID_2443_" fill="#f1f1f2" d="M77.5,64.5V60c0-0.8-0.7-1.5-1.5-1.5l0,0c-0.8,0-1.5,0.7-1.5,1.5v4.5H77.5z"/><path fill="#726571" d="M51,73.6c-0.3-0.1-0.7-0.1-1-0.1c-2.5,0-4.5,2-4.5,4.5v12.5h2V78C47.5,75.9,48.9,74.1,51,73.6z"/><path fill="#726571" d="M49,73.6c0.3-0.1,0.7-0.1,1-0.1c2.5,0,4.5,2,4.5,4.5v12.5h-2V78C52.5,75.9,51,74.1,49,73.6z"/><path id="XMLID_2442_" fill="#8e7f8b" d="M39.5,85.5V83c0-0.8,0.7-1.5,1.5-1.5h0c0.8,0,1.5,0.7,1.5,1.5v2.5H39.5z"/><path id="XMLID_2441_" fill="#8e7f8b" d="M39.5,78.5V76c0-0.8,0.7-1.5,1.5-1.5h0c0.8,0,1.5,0.7,1.5,1.5v2.5H39.5z"/><path id="XMLID_2440_" fill="#8e7f8b" d="M48.4,61.5V60c0-0.8,0.7-1.5,1.5-1.5h0c0.8,0,1.5,0.7,1.5,1.5v1.5"/><rect id="XMLID_2439_" width="3" height="4" x="22.5" y="73.5" fill="#8e7f8b"/><path id="XMLID_2438_" fill="#8e7f8b" d="M60.5,85.5V83c0-0.8-0.7-1.5-1.5-1.5h0c-0.8,0-1.5,0.7-1.5,1.5v2.5H60.5z"/><path id="XMLID_2437_" fill="#8e7f8b" d="M60.5,78.5V76c0-0.8-0.7-1.5-1.5-1.5h0c-0.8,0-1.5,0.7-1.5,1.5v2.5H60.5z"/><rect id="XMLID_2433_" width="3" height="4" x="30.5" y="82.5" fill="#8e7f8b"/><rect id="XMLID_2432_" width="3" height="4" x="30.5" y="75.5" fill="#8e7f8b"/><rect id="XMLID_2431_" width="3" height="4" x="22.5" y="82.5" fill="#8e7f8b"/><rect id="XMLID_2430_" width="3" height="4" x="74.5" y="73.5" fill="#8e7f8b"/><rect id="XMLID_2429_" width="3" height="4" x="66.5" y="82.5" fill="#8e7f8b"/><rect id="XMLID_2428_" width="3" height="4" x="66.5" y="75.5" fill="#8e7f8b"/><rect id="XMLID_2427_" width="3" height="4" x="74.5" y="82.5" fill="#8e7f8b"/><path id="XMLID_2426_" fill="#594454" d="M80.5,91h-61c-0.3,0-0.5-0.2-0.5-0.5s0.2-0.5,0.5-0.5h61c0.3,0,0.5,0.2,0.5,0.5S80.8,91,80.5,91z"/><path id="XMLID_2425_" fill="#594454" d="M54.5,87.5c-0.3,0-0.5-0.2-0.5-0.5v-9c0-2.2-1.8-4-4-4s-4,1.8-4,4v9c0,0.3-0.2,0.5-0.5,0.5S45,87.3,45,87v-9    c0-2.8,2.2-5,5-5s5,2.2,5,5v9C55,87.3,54.7,87.5,54.5,87.5z"/><path id="XMLID_2424_" fill="#594454" d="M57.5,54.5c-0.3,0-0.5-0.2-0.5-0.5v-2c0-3.9-3.1-7-7-7s-7,3.1-7,7v2c0,0.3-0.2,0.5-0.5,0.5S42,54.3,42,54v-2    c0-4.4,3.6-8,8-8s8,3.6,8,8v2C58,54.3,57.7,54.5,57.5,54.5z"/><path id="XMLID_2423_" fill="#594454" d="M42.5,86h-3c-0.3,0-0.5-0.2-0.5-0.5V83c0-1.1,0.9-2,2-2s2,0.9,2,2v2.5C43,85.8,42.7,86,42.5,86z M40,85h2v-2    c0-0.6-0.4-1-1-1s-1,0.4-1,1V85z"/><path id="XMLID_2422_" fill="#594454" d="M42.5,79h-3c-0.3,0-0.5-0.2-0.5-0.5V76c0-1.1,0.9-2,2-2s2,0.9,2,2v2.5C43,78.8,42.7,79,42.5,79z M40,78h2v-2    c0-0.6-0.4-1-1-1s-1,0.4-1,1V78z"/><path id="XMLID_2421_" fill="#594454" d="M40.5,68.1h-4c-0.3,0-0.5-0.2-0.5-0.5v-6c0-1.4,1.1-2.5,2.5-2.5s2.5,1.1,2.5,2.5v6    C41,67.8,40.7,68.1,40.5,68.1z M36.9,67.1h3v-5.5c0-0.8-0.7-1.5-1.5-1.5s-1.5,0.7-1.5,1.5V67.1z"/><path id="XMLID_2420_" fill="#594454" d="M51.4,62c-0.3,0-0.5-0.2-0.5-0.5V60c0-0.6-0.4-1-1-1s-1,0.4-1,1v1.5c0,0.3-0.2,0.5-0.5,0.5s-0.5-0.2-0.5-0.5    V60c0-1.1,0.9-2,2-2s2,0.9,2,2v1.5C51.9,61.8,51.7,62,51.4,62z"/><path id="XMLID_2419_" fill="#594454" d="M45.5,91h-3c-0.3,0-0.5-0.2-0.5-0.5v-22c0-0.3,0.2-0.5,0.5-0.5h3c0.3,0,0.5,0.2,0.5,0.5v22    C46,90.8,45.7,91,45.5,91z M43,90h2V69h-2V90z"/><path id="XMLID_2418_" fill="#594454" d="M39.5,91h-3c-0.3,0-0.5-0.2-0.5-0.5v-19c0-0.3,0.2-0.5,0.5-0.5h3c0.3,0,0.5,0.2,0.5,0.5v19    C40,90.8,39.7,91,39.5,91z M37,90h2V72h-2V90z"/><path id="XMLID_2417_" fill="#594454" d="M25.5,78h-3c-0.3,0-0.5-0.2-0.5-0.5v-4c0-0.3,0.2-0.5,0.5-0.5h3c0.3,0,0.5,0.2,0.5,0.5v4    C26,77.8,25.7,78,25.5,78z M23,77h2v-3h-2V77z"/><path id="XMLID_2416_" fill="#594454" d="M27.5,91h-7c-0.3,0-0.5-0.2-0.5-0.5v-26c0-0.3,0.2-0.5,0.5-0.5h7c0.3,0,0.5,0.2,0.5,0.5v26    C28,90.8,27.7,91,27.5,91z M21,90h6V65h-6V90z"/><path id="XMLID_2415_" fill="#594454" d="M36.5,91h-9c-0.3,0-0.5-0.2-0.5-0.5v-17c0-0.3,0.2-0.5,0.5-0.5h9c0.3,0,0.5,0.2,0.5,0.5v17    C37,90.8,36.7,91,36.5,91z M28,90h8V74h-8V90z"/><path id="XMLID_2414_" fill="#594454" d="M60.5,86h-3c-0.3,0-0.5-0.2-0.5-0.5V83c0-1.1,0.9-2,2-2s2,0.9,2,2v2.5C61,85.8,60.7,86,60.5,86z M58,85h2v-2    c0-0.6-0.4-1-1-1s-1,0.4-1,1V85z"/><path id="XMLID_2413_" fill="#594454" d="M60.5,79h-3c-0.3,0-0.5-0.2-0.5-0.5V76c0-1.1,0.9-2,2-2s2,0.9,2,2v2.5C61,78.8,60.7,79,60.5,79z M58,78h2v-2    c0-0.6-0.4-1-1-1s-1,0.4-1,1V78z"/><path id="XMLID_2412_" fill="#594454" d="M63.5,91h-3c-0.3,0-0.5-0.2-0.5-0.5v-19c0-0.3,0.2-0.5,0.5-0.5h3c0.3,0,0.5,0.2,0.5,0.5v19    C64,90.8,63.7,91,63.5,91z M61,90h2V72h-2V90z"/><path id="XMLID_2411_" fill="#594454" d="M59.5,69h-19c-0.3,0-0.5-0.2-0.5-0.5v-2c0-0.3,0.2-0.5,0.5-0.5h19c0.3,0,0.5,0.2,0.5,0.5v2    C60,68.8,59.7,69,59.5,69z M41,68h18v-1H41V68z"/><path id="XMLID_2410_" fill="#594454" d="M59.5,57h-19c-0.3,0-0.5-0.2-0.5-0.5v-2c0-0.3,0.2-0.5,0.5-0.5h19c0.3,0,0.5,0.2,0.5,0.5v2    C60,56.8,59.7,57,59.5,57z M41,56h18v-1H41V56z"/><path id="XMLID_2409_" fill="#594454" d="M45.5,67h-3c-0.3,0-0.5-0.2-0.5-0.5v-3c0-0.3,0.2-0.5,0.5-0.5h3c0.3,0,0.5,0.2,0.5,0.5v3    C46,66.8,45.7,67,45.5,67z M43,66h2v-2h-2V66z"/><path id="XMLID_2408_" fill="#594454" d="M52.5,64h-5c-0.3,0-0.5-0.2-0.5-0.5v-2c0-0.3,0.2-0.5,0.5-0.5h5c0.3,0,0.5,0.2,0.5,0.5v2    C53,63.8,52.7,64,52.5,64z M48,63h4v-1h-4V63z"/><path id="XMLID_2407_" fill="#594454" d="M57.5,67h-3c-0.3,0-0.5-0.2-0.5-0.5v-3c0-0.3,0.2-0.5,0.5-0.5h3c0.3,0,0.5,0.2,0.5,0.5v3    C58,66.8,57.7,67,57.5,67z M55,66h2v-2h-2V66z"/><path id="XMLID_2406_" fill="#594454" d="M57.5,91h-3c-0.3,0-0.5-0.2-0.5-0.5v-22c0-0.3,0.2-0.5,0.5-0.5h3c0.3,0,0.5,0.2,0.5,0.5v22    C58,90.8,57.7,91,57.5,91z M55,90h2V69h-2V90z"/><path id="XMLID_2403_" fill="#594454" d="M57.5,64h-15c-0.3,0-0.5-0.2-0.5-0.5s0.2-0.5,0.5-0.5h15c0.3,0,0.5,0.2,0.5,0.5S57.7,64,57.5,64z"/><path id="XMLID_2402_" fill="#594454" d="M56.5,62h-13c-0.3,0-0.5-0.2-0.5-0.5s0.2-0.5,0.5-0.5h13c0.3,0,0.5,0.2,0.5,0.5S56.7,62,56.5,62z"/><path id="XMLID_2401_" fill="#594454" d="M40.5,68h-5c-0.3,0-0.5-0.2-0.5-0.5s0.2-0.5,0.5-0.5h5c0.3,0,0.5,0.2,0.5,0.5S40.7,68,40.5,68z"/><path id="XMLID_2400_" fill="#594454" d="M52.5,72h-17c-0.3,0-0.5-0.2-0.5-0.5s0.2-0.5,0.5-0.5h17c0.3,0,0.5,0.2,0.5,0.5S52.7,72,52.5,72z"/><path id="XMLID_2399_" fill="#594454" d="M64.5,72h-17c-0.3,0-0.5-0.2-0.5-0.5s0.2-0.5,0.5-0.5h17c0.3,0,0.5,0.2,0.5,0.5S64.7,72,64.5,72z"/><path id="XMLID_2398_" fill="#594454" d="M81.5,91h-63c-0.3,0-0.5-0.2-0.5-0.5s0.2-0.5,0.5-0.5h63c0.3,0,0.5,0.2,0.5,0.5S81.7,91,81.5,91z"/><path id="XMLID_2397_" fill="#594454" d="M42.5,72h-6c-0.3,0-0.5-0.2-0.5-0.5v-4c0-0.3,0.2-0.5,0.5-0.5h4c0.3,0,0.5,0.2,0.5,0.5V68h1.5    c0.3,0,0.5,0.2,0.5,0.5v3C43,71.8,42.7,72,42.5,72z M37,71h5v-2h-1.5c-0.3,0-0.5-0.2-0.5-0.5V68h-3V71z"/><path id="XMLID_2396_" fill="#594454" d="M64.5,68h-5c-0.3,0-0.5-0.2-0.5-0.5s0.2-0.5,0.5-0.5h5c0.3,0,0.5,0.2,0.5,0.5S64.7,68,64.5,68z"/><path id="XMLID_2395_" fill="#594454" d="M63.5,72h-6c-0.3,0-0.5-0.2-0.5-0.5v-3c0-0.3,0.2-0.5,0.5-0.5H59v-0.5c0-0.3,0.2-0.5,0.5-0.5h4    c0.3,0,0.5,0.2,0.5,0.5v4C64,71.8,63.7,72,63.5,72z M58,71h5v-3h-3v0.5c0,0.3-0.2,0.5-0.5,0.5H58V71z"/><path id="XMLID_2394_" fill="#594454" d="M38.5,67.5c-0.3,0-0.5-0.2-0.5-0.5v-2.4c0-0.3,0.2-0.5,0.5-0.5s0.5,0.2,0.5,0.5V67    C39,67.2,38.7,67.5,38.5,67.5z"/><path id="XMLID_2393_" fill="#594454" d="M38.5,59.6c-0.3,0-0.5-0.2-0.5-0.5v-1.6c0-0.3,0.2-0.5,0.5-0.5s0.5,0.2,0.5,0.5v1.6    C39,59.4,38.7,59.6,38.5,59.6z"/><path id="XMLID_2392_" fill="#594454" d="M41.4,62h-6c-0.3,0-0.5-0.2-0.5-0.5s0.2-0.5,0.5-0.5h6c0.3,0,0.5,0.2,0.5,0.5S41.7,62,41.4,62z"/><path id="XMLID_2391_" fill="#594454" d="M25.4,65h-3c-0.3,0-0.5-0.2-0.5-0.5V60c0-1.1,0.9-2,2-2s2,0.9,2,2v4.5C25.9,64.8,25.7,65,25.4,65z M22.9,64    h2v-4c0-0.6-0.4-1-1-1s-1,0.4-1,1V64z"/><path id="XMLID_2388_" fill="#594454" d="M24,58.6c-0.3,0-0.5-0.2-0.5-0.5v-1.6c0-0.3,0.2-0.5,0.5-0.5s0.5,0.2,0.5,0.5v1.6    C24.5,58.4,24.2,58.6,24,58.6z"/><path id="XMLID_2386_" fill="#594454" d="M27.5,65.6c-0.3,0-0.5-0.2-0.5-0.5v-1.6c0-0.3,0.2-0.5,0.5-0.5s0.5,0.2,0.5,0.5v1.6    C28,65.4,27.7,65.6,27.5,65.6z"/><path id="XMLID_2385_" fill="#594454" d="M26.5,61h-5c-0.3,0-0.5-0.2-0.5-0.5s0.2-0.5,0.5-0.5h5c0.3,0,0.5,0.2,0.5,0.5S26.7,61,26.5,61z"/><path id="XMLID_2384_" fill="#594454" d="M28.5,68h-9c-0.3,0-0.5-0.2-0.5-0.5s0.2-0.5,0.5-0.5h9c0.3,0,0.5,0.2,0.5,0.5S28.7,68,28.5,68z"/><path id="XMLID_2383_" fill="#594454" d="M28.5,72h-9c-0.3,0-0.5-0.2-0.5-0.5s0.2-0.5,0.5-0.5h9c0.3,0,0.5,0.2,0.5,0.5S28.7,72,28.5,72z"/><path id="XMLID_2382_" fill="#594454" d="M25.5,76h-3c-0.3,0-0.5-0.2-0.5-0.5s0.2-0.5,0.5-0.5h3c0.3,0,0.5,0.2,0.5,0.5S25.7,76,25.5,76z"/><path id="XMLID_2381_" fill="#594454" d="M33.5,87h-3c-0.3,0-0.5-0.2-0.5-0.5v-4c0-0.3,0.2-0.5,0.5-0.5h3c0.3,0,0.5,0.2,0.5,0.5v4    C34,86.8,33.7,87,33.5,87z M31,86h2v-3h-2V86z"/><path id="XMLID_2380_" fill="#594454" d="M33,85h-2.5c-0.3,0-0.5-0.2-0.5-0.5s0.2-0.5,0.5-0.5H33c0.3,0,0.5,0.2,0.5,0.5S33.2,85,33,85z"/><path id="XMLID_2379_" fill="#594454" d="M33.5,80h-3c-0.3,0-0.5-0.2-0.5-0.5v-4c0-0.3,0.2-0.5,0.5-0.5h3c0.3,0,0.5,0.2,0.5,0.5v4    C34,79.8,33.7,80,33.5,80z M31,79h2v-3h-2V79z"/><path id="XMLID_2378_" fill="#594454" d="M33,78h-2.5c-0.3,0-0.5-0.2-0.5-0.5s0.2-0.5,0.5-0.5H33c0.3,0,0.5,0.2,0.5,0.5S33.2,78,33,78z"/><path id="XMLID_2377_" fill="#594454" d="M25.5,87h-3c-0.3,0-0.5-0.2-0.5-0.5v-4c0-0.3,0.2-0.5,0.5-0.5h3c0.3,0,0.5,0.2,0.5,0.5v4    C26,86.8,25.7,87,25.5,87z M23,86h2v-3h-2V86z"/><path id="XMLID_2376_" fill="#594454" d="M36.5,74h-9c-0.3,0-0.5-0.2-0.5-0.5v-4c0-0.3,0.2-0.5,0.5-0.5h9c0.3,0,0.5,0.2,0.5,0.5v4    C37,73.8,36.7,74,36.5,74z M28,73h8v-3h-8V73z"/><path id="XMLID_2375_" fill="#594454" d="M28.5,81h-9c-0.3,0-0.5-0.2-0.5-0.5s0.2-0.5,0.5-0.5h9c0.3,0,0.5,0.2,0.5,0.5S28.7,81,28.5,81z"/><path id="XMLID_2374_" fill="#594454" d="M58.4,52h-17c-0.3,0-0.5-0.2-0.5-0.5s0.2-0.5,0.5-0.5h17c0.3,0,0.5,0.2,0.5,0.5S58.7,52,58.4,52z"/><path id="XMLID_2373_" fill="#594454" d="M52,45c-0.3,0-0.5-0.2-0.5-0.5v-4c0-0.8-0.7-1.5-1.5-1.5s-1.5,0.7-1.5,1.5v4c0,0.3-0.2,0.5-0.5,0.5    s-0.5-0.2-0.5-0.5v-4c0-1.4,1.1-2.5,2.5-2.5s2.5,1.1,2.5,2.5v4C52.5,44.8,52.2,45,52,45z"/><path id="XMLID_2372_" fill="#594454" d="M50,44.5c-0.3,0-0.5-0.2-0.5-0.5v-1.4c0-0.3,0.2-0.5,0.5-0.5s0.5,0.2,0.5,0.5V44    C50.5,44.2,50.2,44.5,50,44.5z"/><path id="XMLID_2371_" fill="#594454" d="M44.5,54.5c-0.3,0-0.5-0.2-0.5-0.5v-2c0-0.3,0.2-0.5,0.5-0.5S45,51.7,45,52v2C45,54.3,44.7,54.5,44.5,54.5z"/><path id="XMLID_2370_" fill="#594454" d="M47.5,54.5c-0.3,0-0.5-0.2-0.5-0.5v-2c0-0.3,0.2-0.5,0.5-0.5S48,51.7,48,52v2C48,54.3,47.7,54.5,47.5,54.5z"/><path id="XMLID_2369_" fill="#594454" d="M44.5,61.5c-0.3,0-0.5-0.2-0.5-0.5v-4c0-0.3,0.2-0.5,0.5-0.5S45,56.7,45,57v4C45,61.3,44.7,61.5,44.5,61.5z"/><path id="XMLID_2368_" fill="#594454" d="M46.5,61.5c-0.3,0-0.5-0.2-0.5-0.5v-4c0-0.3,0.2-0.5,0.5-0.5S47,56.7,47,57v4C47,61.3,46.7,61.5,46.5,61.5z"/><path id="XMLID_2367_" fill="#594454" d="M53.5,61.5c-0.3,0-0.5-0.2-0.5-0.5v-4c0-0.3,0.2-0.5,0.5-0.5S54,56.7,54,57v4C54,61.3,53.7,61.5,53.5,61.5z"/><path id="XMLID_2366_" fill="#594454" d="M55.5,61.5c-0.3,0-0.5-0.2-0.5-0.5v-4c0-0.3,0.2-0.5,0.5-0.5S56,56.7,56,57v4C56,61.3,55.7,61.5,55.5,61.5z"/><path id="XMLID_2365_" fill="#594454" d="M52.5,54.5c-0.3,0-0.5-0.2-0.5-0.5v-2c0-0.3,0.2-0.5,0.5-0.5S53,51.7,53,52v2C53,54.3,52.7,54.5,52.5,54.5z"/><path id="XMLID_2364_" fill="#594454" d="M55.5,54.5c-0.3,0-0.5-0.2-0.5-0.5v-2c0-0.3,0.2-0.5,0.5-0.5S56,51.7,56,52v2C56,54.3,55.7,54.5,55.5,54.5z"/><path id="XMLID_2363_" fill="#594454" d="M50,38.6c-0.3,0-0.5-0.2-0.5-0.5v-3.6c0-0.3,0.2-0.5,0.5-0.5s0.5,0.2,0.5,0.5v3.6    C50.5,38.4,50.2,38.6,50,38.6z"/><path id="XMLID_2362_" fill="#594454" d="M52.9,41h-6c-0.3,0-0.5-0.2-0.5-0.5S46.7,40,47,40h6c0.3,0,0.5,0.2,0.5,0.5S53.2,41,52.9,41z"/><path id="XMLID_2361_" fill="#594454" d="M63.5,68h-4c-0.3,0-0.5-0.2-0.5-0.5v-6c0-1.4,1.1-2.5,2.5-2.5s2.5,1.1,2.5,2.5v6C64,67.8,63.7,68,63.5,68z     M59.9,67h3v-5.5c0-0.8-0.7-1.5-1.5-1.5s-1.5,0.7-1.5,1.5V67z"/><path id="XMLID_2360_" fill="#594454" d="M61.5,67.5c-0.3,0-0.5-0.2-0.5-0.5v-2.4c0-0.3,0.2-0.5,0.5-0.5s0.5,0.2,0.5,0.5V67    C62,67.2,61.7,67.5,61.5,67.5z"/><path id="XMLID_2359_" fill="#594454" d="M61.5,59.6c-0.3,0-0.5-0.2-0.5-0.5v-1.6c0-0.3,0.2-0.5,0.5-0.5s0.5,0.2,0.5,0.5v1.6    C62,59.4,61.7,59.6,61.5,59.6z"/><path id="XMLID_2358_" fill="#594454" d="M64.4,62h-6c-0.3,0-0.5-0.2-0.5-0.5s0.2-0.5,0.5-0.5h6c0.3,0,0.5,0.2,0.5,0.5S64.7,62,64.4,62z"/><path id="XMLID_2357_" fill="#594454" d="M49.9,53.5L49.9,53.5c-0.3,0-0.5-0.2-0.5-0.5l0,0c0-0.3,0.2-0.5,0.5-0.5h0c0.3,0,0.5,0.2,0.5,0.5l0,0    C50.4,53.3,50.2,53.5,49.9,53.5z"/><g id="XMLID_2354_"><path id="XMLID_2356_" fill="#594454" d="M39.5,60c-0.3,0-0.5-0.2-0.5-0.5s0.2-0.5,0.5-0.5c1.4,0,2.5-1.1,2.5-2.5c0-0.3,0.2-0.5,0.5-0.5     s0.5,0.2,0.5,0.5C43,58.5,41.4,60,39.5,60z"/><path id="XMLID_2355_" fill="#594454" d="M39.5,60h-0.5c-0.3,0-0.5-0.2-0.5-0.5s0.2-0.5,0.5-0.5h0.5c0.3,0,0.5,0.2,0.5,0.5S39.7,60,39.5,60z"/></g><g id="XMLID_2351_"><path id="XMLID_2353_" fill="#594454" d="M60.5,60c-1.9,0-3.5-1.6-3.5-3.5c0-0.3,0.2-0.5,0.5-0.5s0.5,0.2,0.5,0.5c0,1.4,1.1,2.5,2.5,2.5     c0.3,0,0.5,0.2,0.5,0.5S60.7,60,60.5,60z"/><path id="XMLID_2352_" fill="#594454" d="M61,60h-0.5c-0.3,0-0.5-0.2-0.5-0.5s0.2-0.5,0.5-0.5H61c0.3,0,0.5,0.2,0.5,0.5S61.2,60,61,60z"/></g><circle id="XMLID_2350_" cx="24" cy="69.5" r=".5" fill="#594454"/><path id="XMLID_2349_" fill="#594454" d="M77.5,78h-3c-0.3,0-0.5-0.2-0.5-0.5v-4c0-0.3,0.2-0.5,0.5-0.5h3c0.3,0,0.5,0.2,0.5,0.5v4    C78,77.8,77.7,78,77.5,78z M75,77h2v-3h-2V77z"/><path id="XMLID_2348_" fill="#594454" d="M79.5,91h-7c-0.3,0-0.5-0.2-0.5-0.5v-26c0-0.3,0.2-0.5,0.5-0.5h7c0.3,0,0.5,0.2,0.5,0.5v26    C80,90.8,79.7,91,79.5,91z M73,90h6V65h-6V90z"/><path id="XMLID_2347_" fill="#594454" d="M72.5,91h-9c-0.3,0-0.5-0.2-0.5-0.5v-17c0-0.3,0.2-0.5,0.5-0.5h9c0.3,0,0.5,0.2,0.5,0.5v17    C73,90.8,72.7,91,72.5,91z M64,90h8V74h-8V90z"/><path id="XMLID_2346_" fill="#594454" d="M77.5,65h-3c-0.3,0-0.5-0.2-0.5-0.5V60c0-1.1,0.9-2,2-2s2,0.9,2,2v4.5C78,64.8,77.7,65,77.5,65z M75,64h2v-4    c0-0.6-0.4-1-1-1s-1,0.4-1,1V64z"/><path id="XMLID_2343_" fill="#594454" d="M76,58.6c-0.3,0-0.5-0.2-0.5-0.5v-1.6c0-0.3,0.2-0.5,0.5-0.5s0.5,0.2,0.5,0.5v1.6    C76.5,58.4,76.2,58.6,76,58.6z"/><path id="XMLID_2342_" fill="#594454" d="M79.5,65.6c-0.3,0-0.5-0.2-0.5-0.5v-1.6c0-0.3,0.2-0.5,0.5-0.5s0.5,0.2,0.5,0.5v1.6    C80,65.4,79.7,65.6,79.5,65.6z"/><path id="XMLID_2341_" fill="#594454" d="M72.5,65.6c-0.3,0-0.5-0.2-0.5-0.5v-1.6c0-0.3,0.2-0.5,0.5-0.5s0.5,0.2,0.5,0.5v1.6    C73,65.4,72.7,65.6,72.5,65.6z"/><path id="XMLID_2340_" fill="#594454" d="M78.5,61h-5c-0.3,0-0.5-0.2-0.5-0.5s0.2-0.5,0.5-0.5h5c0.3,0,0.5,0.2,0.5,0.5S78.7,61,78.5,61z"/><path id="XMLID_2339_" fill="#594454" d="M80.5,68h-9c-0.3,0-0.5-0.2-0.5-0.5s0.2-0.5,0.5-0.5h9c0.3,0,0.5,0.2,0.5,0.5S80.7,68,80.5,68z"/><path id="XMLID_2338_" fill="#594454" d="M80.5,72h-9c-0.3,0-0.5-0.2-0.5-0.5s0.2-0.5,0.5-0.5h9c0.3,0,0.5,0.2,0.5,0.5S80.7,72,80.5,72z"/><path id="XMLID_2337_" fill="#594454" d="M77.5,76h-3c-0.3,0-0.5-0.2-0.5-0.5s0.2-0.5,0.5-0.5h3c0.3,0,0.5,0.2,0.5,0.5S77.7,76,77.5,76z"/><path id="XMLID_2336_" fill="#594454" d="M69.5,87h-3c-0.3,0-0.5-0.2-0.5-0.5v-4c0-0.3,0.2-0.5,0.5-0.5h3c0.3,0,0.5,0.2,0.5,0.5v4    C70,86.8,69.7,87,69.5,87z M67,86h2v-3h-2V86z"/><path id="XMLID_2335_" fill="#594454" d="M69.5,85H67c-0.3,0-0.5-0.2-0.5-0.5S66.7,84,67,84h2.5c0.3,0,0.5,0.2,0.5,0.5S69.7,85,69.5,85z"/><path id="XMLID_2334_" fill="#594454" d="M69.5,80h-3c-0.3,0-0.5-0.2-0.5-0.5v-4c0-0.3,0.2-0.5,0.5-0.5h3c0.3,0,0.5,0.2,0.5,0.5v4    C70,79.8,69.7,80,69.5,80z M67,79h2v-3h-2V79z"/><path id="XMLID_2333_" fill="#594454" d="M69.5,78H67c-0.3,0-0.5-0.2-0.5-0.5S66.7,77,67,77h2.5c0.3,0,0.5,0.2,0.5,0.5S69.7,78,69.5,78z"/><path id="XMLID_2332_" fill="#594454" d="M77.5,87h-3c-0.3,0-0.5-0.2-0.5-0.5v-4c0-0.3,0.2-0.5,0.5-0.5h3c0.3,0,0.5,0.2,0.5,0.5v4    C78,86.8,77.7,87,77.5,87z M75,86h2v-3h-2V86z"/><path id="XMLID_2331_" fill="#594454" d="M72.5,74h-9c-0.3,0-0.5-0.2-0.5-0.5v-4c0-0.3,0.2-0.5,0.5-0.5h9c0.3,0,0.5,0.2,0.5,0.5v4    C73,73.8,72.7,74,72.5,74z M64,73h8v-3h-8V73z"/><g id="XMLID_2330_"><path fill="#594454" d="M80.5,81h-9c-0.3,0-0.5-0.2-0.5-0.5s0.2-0.5,0.5-0.5h9c0.3,0,0.5,0.2,0.5,0.5S80.7,81,80.5,81z"/></g><g id="XMLID_2329_"><circle cx="76" cy="69.5" r=".5" fill="#594454"/></g></svg>