<?xml version="1.0" standalone="no"?><!DOCTYPE svg PUBLIC "-//W3C//DTD SVG 1.1//EN" "http://www.w3.org/Graphics/SVG/1.1/DTD/svg11.dtd"><svg class="icon" height="512" viewBox="0 0 1024 1024" version="1.1" xmlns="http://www.w3.org/2000/svg"><path d="M512 96c56.174 0 110.65 10.994 161.916 32.678 49.534 20.952 94.026 50.952 132.24 89.166s68.214 82.708 89.166 132.24C917.006 401.35 928 455.826 928 512s-10.994 110.65-32.678 161.916c-20.952 49.534-50.952 94.026-89.166 132.24s-82.708 68.214-132.24 89.166C622.65 917.006 568.174 928 512 928s-110.65-10.994-161.916-32.678c-49.534-20.952-94.026-50.952-132.24-89.166s-68.214-82.708-89.166-132.24C106.994 622.65 96 568.174 96 512s10.994-110.65 32.678-161.916c20.952-49.534 50.952-94.026 89.166-132.24s82.708-68.214 132.24-89.166C401.35 106.994 455.826 96 512 96M512 64C264.576 64 64 264.576 64 512s200.576 448 448 448 448-200.576 448-448S759.424 64 512 64L512 64zM215.552 640c-50.504 0-82.336-36.896-83.804-38.634-5.682-6.718-4.802-16.742 1.964-22.384 6.748-5.626 16.802-4.776 22.496 1.896 1.208 1.402 29.212 33.194 71.212 26.372 24.208-3.928 56.16-51.362 77.304-82.752 8.502-12.622 15.844-23.522 22.43-31.712 33.546-41.73 67.798-46.666 90.65-43.452 48.278 6.788 88.716 54.996 107.378 99.764 14.908 35.768 38.084 56.512 65.256 58.416 30.816 2.122 63.078-19.77 86.21-58.672 2.456-4.128 5.124-8.992 7.956-14.14 18.964-34.524 47.628-86.7 103.5-86.7 62.292 0 103.914 68.572 105.656 71.492 4.504 7.548 1.992 17.296-5.612 21.77-7.6 4.474-17.416 1.976-21.92-5.572-0.074-0.124-8.986-14.826-23.718-29.136-12.572-12.214-32.216-26.774-54.406-26.774-36.876 0-58.242 38.89-75.41 70.14-2.96 5.392-5.76 10.486-8.49 15.076-29.436 49.502-72.8 77.27-116.02 74.216-39.902-2.796-72.778-30.484-92.568-77.96-20.026-48.04-56.558-76.834-82.298-80.456-21.2-2.988-41.79 7.722-61.156 31.812-5.744 7.146-13.078 18.034-20.842 29.558-27.098 40.228-60.822 90.292-98.74 96.446C226.698 639.568 221.014 640 215.552 640z" /></svg>