<svg width="80" height="24" viewBox="0 0 80 24" fill="none" xmlns="http://www.w3.org/2000/svg"><path d="M23.825 11.743c0 5.867-4.249 10.75-9.84 11.733l-1.296-7.328a4.465 4.465 0 0 0 3.687-4.396 4.465 4.465 0 0 0-3.687-4.395L13.985.028c5.582.966 9.84 5.848 9.84 11.715zM11.136 16.138l-1.297 7.329C4.25 22.483 0 17.609 0 11.733S4.248.983 9.84 0l1.296 7.329a4.465 4.465 0 0 0-3.688 4.395 4.485 4.485 0 0 0 3.688 4.414z" fill="#F75D34"/><path d="M26.795 5.793c0-1.683 1.251-2.97 2.97-2.97 1.04 0 1.95.515 2.447 1.324L31.09 4.8c-.249-.441-.745-.699-1.325-.699-1.011 0-1.664.68-1.664 1.692 0 1.02.653 1.692 1.665 1.692.579 0 1.075-.257 1.324-.699l1.122.653c-.488.81-1.398 1.324-2.447 1.324-1.719-.009-2.97-1.296-2.97-2.97zM36.993 4.304v4.46h-1.26v-.515c-.275.322-.69.515-1.26.515-1.103 0-2.013-.966-2.013-2.226s.91-2.225 2.014-2.225c.56 0 .975.193 1.26.515v-.515h1.26v-.009zm-1.26 2.225c0-.634-.422-1.03-1.002-1.03-.58 0-1.002.396-1.002 1.03 0 .635.423 1.03 1.002 1.03.58 0 1.002-.395 1.002-1.03zM40.037 4.303v1.444c-.524-.083-1.278.129-1.278.965v2.042H37.48v-4.46h1.279v.846c.174-.561.745-.837 1.278-.837zM53.453 8.763L52.147 6.96v1.803h-1.223v-5.94h1.223v3.273l1.223-1.784h1.426l-1.48 2.161 1.526 2.299h-1.389v-.01zM59.246 5.995v2.768h-1.223V6.17c0-.506-.322-.745-.708-.745-.45 0-.754.257-.754.837v2.492h-1.223V2.823h1.223v1.986c.22-.304.625-.497 1.168-.497.818-.009 1.517.58 1.517 1.683zM59.743 6.53c0-1.26.993-2.226 2.234-2.226 1.242 0 2.235.965 2.235 2.225 0 1.26-.994 2.226-2.235 2.226-1.241 0-2.234-.966-2.234-2.226zm3.2 0c0-.598-.423-.994-.966-.994-.552 0-.965.396-.965.993 0 .598.423.993.965.993.543.01.966-.395.966-.993zM45.664 5.784c0 1.683-1.25 2.97-2.888 2.97h-2.243v-5.94h2.243c1.646 0 2.888 1.287 2.888 2.97zm-1.26 0c0-1.02-.644-1.692-1.582-1.692h-1.02v3.384h1.02c.93 0 1.582-.671 1.582-1.692zM48.395 7.632c.248 0 .47-.073.644-.174l1.186.441c-.414.58-1.04.874-1.84.874-1.443 0-2.335-.975-2.335-2.226 0-1.25.91-2.225 2.244-2.225 1.232 0 2.143.956 2.143 2.225 0 .175-.019.35-.046.506h-3.007c.156.423.542.58 1.011.58zm.772-1.544c-.128-.488-.514-.663-.891-.663-.479 0-.8.24-.92.663h1.811zM51.715 11.31a.772.772 0 1 0 0-1.544.772.772 0 0 0 0 1.544zM32.183 16.763v-4.754a.247.247 0 0 0-.248-.248H30.87a.247.247 0 0 0-.249.248v.671s-.138-.147-.248-.248a2.595 2.595 0 0 0-.635-.423c-.597-.276-1.232-.35-1.774-.12-.45.184-.773.534-.92.994-.285.9-.276 2.032-.064 2.979.248 1.122 1.195 2.06 2.694 1.775.147-.028.331-.11.497-.24.303-.22.46-.468.46-.468v.754c0 .248-.019.836-.12 1.085-.175.44-.543.652-1.085.625-.478-.028-.81-.267-.975-.754-.018-.064-.064-.138-.211-.129h-.948c-.156-.01-.248.046-.303.156 0 .019-.018.11.037.249 0 0 .138.248.193.35.092.174.175.303.303.45.423.487.966.79 1.674.92.441.082.92.008.929.008h.009c.947-.082 1.416-.469 1.756-1.204.331-.727.294-2.676.294-2.676zM30.62 15.31c-.027.561-.35.947-.827 1.012-.065.009-.13.009-.184.009-.607 0-1.067-.414-1.187-1.104 0 0-.036-.239-.036-.487 0-.083-.01-.368 0-.506.009-.276.037-.423.037-.423a.932.932 0 0 1 .413-.643c.23-.148.534-.184.865-.102.542.147.928.68.928 1.27v.974h-.009zM50.933 17.444c0 .138.11.248.248.248h1.067c.138 0 .248-.11.248-.248V11.99a.247.247 0 0 0-.248-.248H51.18a.247.247 0 0 0-.248.248v5.453zM37.784 11.76h-1.067a.247.247 0 0 0-.248.249l-.056.735-.147-.184a1.96 1.96 0 0 0-.542-.496 2.206 2.206 0 0 0-1.104-.313c-.211 0-.413.037-.606.101-.451.157-.828.479-1.021.892a3.33 3.33 0 0 0-.304 1.426v.322c0 .597.083 1.084.285 1.682.332.975 1.178 1.545 2.161 1.518.525-.019.883-.221 1.131-.653l.148-.34.055.735c0 .138.11.248.248.248h1.067c.138 0 .248-.11.248-.248v-5.435c0-.128-.11-.239-.248-.239zm-1.426 3.55c-.027.56-.35.947-.827 1.011-.065.01-.129.01-.184.01-.607 0-1.067-.414-1.186-1.104 0 0-.037-.239-.037-.487 0-.083-.01-.368 0-.506.01-.276.037-.423.037-.423a.932.932 0 0 1 .413-.644c.23-.147.543-.184.865-.1.542.146.929.68.929 1.268v.975h-.01zM43.807 11.76H42.74a.247.247 0 0 0-.248.249l-.055.735-.147-.184a1.96 1.96 0 0 0-.543-.496 2.206 2.206 0 0 0-1.103-.313c-.212 0-.414.037-.607.101-.45.157-.828.479-1.02.892a3.33 3.33 0 0 0-.304 1.426v.322c0 .597.083 1.084.285 1.682.33.975 1.177 1.545 2.16 1.518.525-.019.884-.221 1.132-.653l.147-.34.055.735c0 .138.11.248.248.248h1.067c.138 0 .248-.11.248-.248v-5.435c0-.128-.11-.239-.248-.239zm-1.434 3.55c-.028.56-.35.947-.828 1.011-.064.01-.129.01-.184.01-.607 0-1.067-.414-1.186-1.104 0 0-.037-.239-.037-.487 0-.083-.01-.368 0-.506.01-.276.037-.423.037-.423a.932.932 0 0 1 .414-.644c.23-.147.542-.184.864-.1.543.146.929.68.929 1.268v.975h-.01zM49.793 9.756h-1.066a.247.247 0 0 0-.249.249v2.73s-.469-.514-.744-.68a2.233 2.233 0 0 0-1.104-.312c-.211 0-.414.036-.607.1a1.8 1.8 0 0 0-1.03.893 3.373 3.373 0 0 0-.303 1.434v.322c0 .598.092 1.085.285 1.683.331.984 1.186 1.554 2.17 1.526.524-.018.883-.22 1.14-.653l.157-.34.055.745c0 .138.11.248.248.248h1.067c.138 0 .248-.11.248-.248v-7.44c-.018-.146-.129-.257-.267-.257zm-1.434 5.545c-.028.561-.35.947-.828 1.012-.064.009-.128.009-.184.009-.616 0-1.066-.423-1.195-1.113 0 0-.037-.239-.037-.487 0-.083-.009-.368 0-.506.01-.276.037-.423.037-.423a.932.932 0 0 1 .414-.644c.23-.147.542-.183.864-.1.543.146.938.68.929 1.268v.984zM58.795 16.073c0 .938-.818 1.619-2.04 1.619-1.141 0-1.895-.534-2.171-1.27l.487-.284c.203.616.819 1.002 1.674 1.002.8 0 1.471-.35 1.471-1.076 0-1.554-3.457-.662-3.457-2.713 0-.9.772-1.618 1.94-1.618.92 0 1.628.441 1.94 1.14l-.478.276c-.24-.597-.837-.864-1.462-.864-.745 0-1.37.386-1.37 1.076.009 1.526 3.466.625 3.466 2.712zM61.664 12.303v3.9c0 1.002.534 1.02 1.692.919v.515c-1.49.23-2.28-.138-2.28-1.435v-3.899h-1.25v-.56h1.25V9.756h.58v1.987h1.691v.56h-1.683zM63.991 14.713c0-1.683 1.334-2.97 2.989-2.97 1.646 0 2.979 1.287 2.979 2.97 0 1.682-1.333 2.97-2.98 2.97-1.654 0-2.988-1.288-2.988-2.97zm5.398 0c0-1.352-1.048-2.419-2.4-2.419a2.39 2.39 0 0 0-2.41 2.419 2.39 2.39 0 0 0 2.41 2.418c1.352 0 2.4-1.067 2.4-2.418zM73.885 11.743v.56c-1.012 0-1.96.626-1.96 2.125v3.264h-.588v-5.95h.589v1.233c.395-.929 1.159-1.232 1.959-1.232zM80 14.74c0 .092-.01.184-.01.276h-5.167c.138 1.287 1.122 2.133 2.418 2.133.938 0 1.646-.432 1.977-1.039l.506.294c-.469.773-1.36 1.288-2.483 1.288-1.756 0-2.997-1.25-2.997-2.98 0-1.673 1.213-2.979 2.951-2.979 1.72.01 2.805 1.444 2.805 3.007zm-5.186-.285h4.588c-.129-1.389-1.103-2.17-2.225-2.17-1.297.01-2.244.91-2.363 2.17z" fill="#000"/></svg>