<svg width="110" height="25" viewBox="0 0 110 25" xmlns="http://www.w3.org/2000/svg"><g id="Update-1-may-2019" stroke="none" stroke-width="1" fill="none" fill-rule="evenodd"><g id="id-main-logo" fill-rule="nonzero"><g id="Group-16" transform="translate(0 5)"><g id="Group-13" fill="#FF2D3C"><path id="Fill-128" d="M0 2.115h2.115V0H0z"/><path d="M11.567 8.477a3.745 3.745 0 0 1-1.92 3.256l-1.537.868v-1.83c0-1.343.732-2.584 1.92-3.255l1.537-.868v1.83zM13.87.038H4.65v2.253h6.918v1.755L8.688 5.672c-1.783 1.007-2.881 2.869-2.881 4.883v1.994l-1.542-.872a3.745 3.745 0 0 1-1.921-3.255V4.549H.041v4.089c0 2.014 1.099 3.876 2.882 4.883l2.884 1.63 1.198.676 1.105-.624 2.879-1.626c1.783-1.007 2.881-2.869 2.881-4.884V.038z" id="Fill-129"/></g><g id="Group-154" fill="#13122B"><path d="M48.991 5.677c0-.958-.653-1.558-1.554-1.558-.9 0-1.553.6-1.553 1.558 0 .958.653 1.558 1.553 1.558.901 0 1.554-.6 1.554-1.558zm1.958-3.372v6.756H48.99V8.27c-.432.485-1.071.779-1.945.779-1.71 0-3.12-1.47-3.12-3.372 0-1.903 1.41-3.372 3.12-3.372.874 0 1.513.294 1.945.78v-.78h1.958z" id="Fill-131"/><path d="M43.35 2.305v2.19c-.817-.128-1.975.194-1.975 1.47V9.06h-1.976V2.305h1.976v1.276c.262-.863 1.145-1.276 1.975-1.276" id="Fill-133"/><path id="Fill-135" d="M93.302 9.06l-2.02-2.73v2.73h-1.895V.055h1.895V5.01l1.894-2.706h2.21L93.086 5.58l2.361 3.482z"/><path d="M102.276 4.863V9.06h-1.894V5.135c0-.766-.492-1.125-1.098-1.125-.695 0-1.174.395-1.174 1.273V9.06h-1.895V.054h1.895v3.005c.34-.457.972-.754 1.805-.754 1.275 0 2.361.89 2.361 2.558" id="Fill-137"/><path d="M108.003 5.677c0-.907-.653-1.507-1.5-1.507-.849 0-1.501.6-1.501 1.507 0 .907.652 1.507 1.5 1.507s1.501-.6 1.501-1.507m-4.96 0c0-1.903 1.541-3.372 3.46-3.372 1.918 0 3.459 1.47 3.459 3.372 0 1.903-1.541 3.372-3.46 3.372-1.918 0-3.459-1.47-3.459-3.372" id="Fill-139"/><path d="M79.287 4.542c0-1.546-1-2.561-2.45-2.561h-1.579v5.121h1.58c1.443 0 2.449-1.015 2.449-2.56m1.96 0c0 2.548-1.934 4.503-4.474 4.503h-3.475V.038h3.475c2.54 0 4.473 1.955 4.473 4.504" id="Fill-141"/><path d="M86.665 5.008c-.206-.739-.8-1.01-1.387-1.01-.742 0-1.245.36-1.426 1.01h2.813zm-1.2 2.33c.385 0 .73-.105.993-.27l1.833.667c-.639.871-1.607 1.32-2.852 1.32-2.232 0-3.62-1.471-3.62-3.378S83.234 2.3 85.298 2.3c1.91 0 3.323 1.445 3.323 3.377 0 .271-.026.524-.077.77h-4.64c.24.663.84.89 1.562.89z" id="Fill-143"/><path d="M70.578 5.014c-.206-.739-.8-1.01-1.387-1.01-.742 0-1.245.36-1.426 1.01h2.813zm-1.2 2.33c.386 0 .731-.105.993-.27l1.833.667c-.638.871-1.606 1.32-2.851 1.32-2.233 0-3.62-1.471-3.62-3.378s1.413-3.378 3.478-3.378c1.91 0 3.322 1.446 3.322 3.378 0 .271-.025.524-.077.77h-4.639c.239.663.839.89 1.561.89z" id="Fill-145"/><path id="Fill-147" d="M16.175 9.06h2.104V.055h-2.104z"/><path d="M25.504 5.026V9.06h-2.015V5.315c0-.815-.524-1.196-1.168-1.196-.74 0-1.25.42-1.25 1.354V9.06h-2.014V2.305h2.014v.802c.363-.486 1.035-.802 1.921-.802 1.357 0 2.512.947 2.512 2.72" id="Fill-149"/><path d="M58.16 5.026V9.06h-2.014V5.315c0-.815-.524-1.196-1.169-1.196-.738 0-1.249.42-1.249 1.354V9.06h-2.014V2.305h2.014v.802c.363-.486 1.035-.802 1.921-.802 1.357 0 2.512.947 2.512 2.72" id="Fill-150"/><path d="M28.891 9.06c-1.307 0-2.301-.486-2.81-1.522l1.699-.947c.17.487.536.755 1.111.755.47 0 .706-.14.706-.396 0-.704-3.216-.333-3.216-2.546 0-1.395 1.203-2.099 2.563-2.099 1.059 0 2 .461 2.55 1.37l-1.674.882c-.184-.333-.445-.563-.876-.563-.34 0-.55.128-.55.358 0 .73 3.217.244 3.217 2.61 0 1.472-1.308 2.099-2.72 2.099z" id="Fill-151"/><path d="M38.634 2.305V9.06h-2.015V8.26c-.362.486-1.034.801-1.92.801-1.357 0-2.512-.946-2.512-2.72V2.305h2.015v3.746c0 .815.524 1.196 1.168 1.196.739 0 1.25-.42 1.25-1.354V2.305h2.014z" id="Fill-152"/><path d="M58.737 5.683c0-1.906 1.477-3.378 3.465-3.378 1.268 0 2.392.653 2.955 1.638l-1.713.972c-.222-.447-.693-.716-1.268-.716-.85 0-1.478.601-1.478 1.484s.628 1.484 1.478 1.484c.575 0 1.059-.269 1.268-.716l1.713.96c-.563.997-1.674 1.65-2.955 1.65-1.988 0-3.465-1.472-3.465-3.378" id="Fill-153"/></g></g></g></g></svg>