<svg width="21" height="21" viewBox="0 0 21 21" fill="none" xmlns="http://www.w3.org/2000/svg"><path d="M9.794 0h.535c.012.148.012.296.023.456h.273c.012-.16.023-.308.023-.456h.49c.432.057.865.114 1.31.17-.035.172-.058.308-.08.468.102.023.182.034.273.057.034-.16.068-.308.114-.49.592.182 1.15.364 1.73.547-.067.182-.124.307-.181.455.09.034.17.08.262.114.068-.148.125-.285.205-.455.523.284 1.036.569 1.548.854-.102.16-.182.284-.273.41.08.057.16.102.24.16.09-.138.181-.252.284-.4.421.353.831.684 1.253 1.037-.126.136-.228.239-.342.353.068.068.125.136.194.205.125-.114.227-.217.364-.353.387.478.763.945 1.15 1.412-.16.114-.273.194-.398.273.057.091.102.16.16.24.136-.092.261-.171.41-.263.284.547.557 1.071.842 1.606-.171.08-.308.125-.456.194.035.09.069.182.114.262.16-.057.285-.114.456-.171.17.57.33 1.127.49 1.697-.194.045-.33.08-.479.114.023.102.046.193.068.273.16-.023.308-.046.445-.068.011.068.022.125.034.182.045.307.08.615.125.934v.49h-.444v.284H21v.535c-.057.433-.114.854-.17 1.299-.172-.023-.32-.046-.468-.069-.022.103-.034.183-.057.274.16.034.296.068.479.113-.183.581-.365 1.15-.547 1.732-.17-.069-.307-.126-.455-.183-.035.091-.08.171-.114.262.159.069.284.126.444.205-.285.524-.57 1.025-.854 1.549l-.41-.262c-.057.091-.103.16-.16.24.137.09.25.181.399.284a95.97 95.97 0 0 0-1.082 1.31c-.103-.16-.194-.285-.24-.365a3.545 3.545 0 0 0-.261.171c.114.125.216.228.319.33-.479.388-.934.763-1.401 1.15-.091-.136-.17-.25-.262-.375-.08.057-.16.114-.24.16.092.136.16.261.263.41-.535.284-1.06.557-1.606.842-.08-.171-.137-.308-.205-.456-.091.046-.17.08-.262.114.057.148.114.285.17.456-.58.17-1.127.33-1.696.49-.045-.194-.068-.33-.102-.479-.103.023-.183.034-.274.057.023.16.046.307.069.456a1.842 1.842 0 0 0-.16.034c-.319.045-.638.08-.957.125h-.49v-.456h-.284V21h-.535c-.421-.057-.843-.114-1.287-.17.023-.172.057-.308.08-.468-.103-.022-.183-.034-.274-.057-.034.16-.068.308-.113.49-.581-.182-1.15-.364-1.72-.547.068-.182.125-.319.182-.466-.102-.046-.182-.069-.262-.103-.068.16-.136.296-.205.456-.524-.297-1.036-.57-1.549-.855.103-.16.183-.284.262-.421a4.36 4.36 0 0 1-.239-.16 8.685 8.685 0 0 1-.285.4c-.42-.354-.83-.695-1.275-1.06.148-.114.262-.216.364-.296a4.802 4.802 0 0 1-.227-.319c-.126.16-.217.273-.342.41-.387-.478-.763-.945-1.15-1.412.16-.114.284-.194.41-.285-.057-.09-.114-.16-.171-.239-.137.091-.262.17-.421.262-.285-.547-.558-1.07-.843-1.606.182-.08.319-.136.467-.193-.046-.103-.08-.183-.114-.262-.16.057-.296.114-.467.182-.17-.58-.33-1.128-.49-1.697.182-.045.32-.068.49-.114-.023-.102-.034-.182-.057-.273l-.456.068c-.01-.068-.022-.114-.034-.16-.045-.307-.08-.603-.125-.91v-.536h.467v-.296c-.16-.011-.319-.022-.467-.034v-.535c.011-.08.034-.16.046-.24.045-.34.09-.671.125-1.024.17.034.319.057.478.08.023-.103.034-.183.057-.274a14.18 14.18 0 0 1-.49-.114c.183-.58.365-1.15.547-1.73.182.068.319.125.467.193.034-.103.068-.17.102-.262-.148-.068-.284-.137-.444-.205.285-.524.57-1.025.854-1.549.16.103.285.182.422.274.057-.08.102-.149.16-.228-.137-.103-.263-.194-.4-.296.354-.422.695-.832 1.071-1.276.114.148.205.262.296.387.091-.09.16-.148.262-.239-.137-.102-.25-.193-.398-.307.5-.41.968-.786 1.446-1.173.114.17.193.284.273.41.08-.057.16-.103.24-.16-.092-.136-.16-.262-.263-.421.547-.285 1.07-.558 1.606-.843.08.182.137.319.194.456.102-.046.182-.08.262-.114-.057-.16-.114-.296-.171-.467.58-.17 1.127-.33 1.697-.49.045.182.068.32.114.49.102-.023.193-.046.273-.057-.023-.17-.046-.308-.068-.456.068-.011.113-.022.159-.034.273-.045.57-.09.877-.125z" fill="#262626"/><path d="M10.489 2.881C6.286 2.893 2.88 6.298 2.88 10.5c0 4.19 3.428 7.596 7.619 7.596 4.077 0 7.585-3.325 7.585-7.573.011-4.248-3.394-7.653-7.596-7.642z" fill="#fff"/><path fill-rule="evenodd" clip-rule="evenodd" d="M0 10.318l.467.034v.296H0v-.33zM10.648 0a5.802 5.802 0 0 0-.023.456h-.273c-.011-.16-.023-.308-.023-.456h.319zM20.977 10.602h-.444v-.284h.444v.284z" fill="#fff"/><path d="M10.489 3.132a7.376 7.376 0 0 0-7.357 7.357c0 4.042 3.314 7.345 7.368 7.345 3.94 0 7.334-3.223 7.334-7.323.011-4.1-3.291-7.39-7.345-7.38z" fill="#000"/><path d="M10.489 4.293a6.216 6.216 0 0 0-6.196 6.196c0 3.405 2.79 6.183 6.207 6.183 3.314 0 6.172-2.71 6.184-6.172 0-3.44-2.779-6.218-6.195-6.207z" fill="#fff"/><path d="M7.505 9.384H6.184a.82.82 0 0 1-.627-.273.922.922 0 0 1-.261-.65c0-.25.09-.466.261-.649a.82.82 0 0 1 .627-.273h4.418c.24 0 .456.091.627.273.17.183.262.399.262.65 0 .25-.091.466-.262.649a.82.82 0 0 1-.627.273h-1.32" fill="#4D4D4F"/><path d="M14.987 8.484c-.604-.626-1.332-.934-2.187-.934h-1.07v1.834h1.07c.365 0 .684.137.934.399.262.273.387.592.387.968 0 .375-.125.706-.387.968-.262.273-.57.398-.934.398h-1.07v1.834h1.07c.854 0 1.583-.308 2.187-.934a3.147 3.147 0 0 0 .911-2.266c0-.877-.307-1.64-.911-2.267z" fill="#E44227"/><path d="M9.236 9.908c0-.16-.091-.217-.091-.274v4.18c0-.091.09-.137.09-.296v-3.61z" fill="url(#paint0_linear)"/><path d="M7.755 13.518c0 .16.092.205.092.296v-4.18c0 .057-.092.114-.092.274v3.61z" fill="url(#paint1_linear)"/><path d="M8.108 9.51v.022c.023.011.035.011.046 0v-.034c.046 0 .091-.012.148-.012v.023c.023.023.046.023.068 0v-.023h.251v.023c.023.034.045.034.068 0v-.023c.046 0 .103.012.148.012v.023c.012.022.034.022.046 0v-.023c.16.023.25.045.25.08v4.27c0 .034-.102.057-.25.08v-.046a.035.035 0 0 0-.046 0v.046c-.045 0-.09.011-.148.011v-.045c-.023-.023-.045-.023-.068 0v.045H8.37v-.045c-.022-.023-.045-.023-.068 0v.045c-.045 0-.102-.011-.148-.011v-.046c-.023-.011-.034-.011-.046 0v.046c-.159-.023-.25-.046-.25-.08v-4.27c-.011-.023.091-.057.25-.069z" fill="url(#paint2_linear)"/><path d="M9.1 11.719c0 1.138.022 2.06.045 2.06s.045-.922.045-2.06c0-1.14-.022-2.062-.045-2.062s-.046.923-.046 2.062z" fill="url(#paint3_radial)"/><path d="M8.575 11.719c0 1.138.023 2.06.046 2.06s.045-.922.045-2.06c0-1.14-.022-2.062-.045-2.062s-.046.923-.046 2.062z" fill="url(#paint4_radial)"/><path d="M7.824 11.719c0 1.138.023 2.06.045 2.06.023 0 .046-.922.046-2.06 0-1.14-.023-2.062-.046-2.062-.022 0-.045.923-.045 2.062z" fill="url(#paint5_radial)"/><path d="M8.108 9.51v.022c.023.011.035.011.046 0v-.034c.046 0 .091-.012.148-.012v.023c.023.023.046.023.068 0v-.023h.251v.023c.023.034.045.034.068 0v-.023c.046 0 .103.012.148.012v.023c.012.022.034.022.046 0v-.023c.16.023.25.045.25.08v4.27c0 .034-.102.057-.25.08v-.046a.035.035 0 0 0-.046 0v.046c-.045 0-.09.011-.148.011v-.045c-.023-.023-.045-.023-.068 0v.045H8.37v-.045c-.022-.023-.045-.023-.068 0v.045c-.045 0-.102-.011-.148-.011v-.046c-.023-.011-.034-.011-.046 0v.046c-.159-.023-.25-.046-.25-.08v-4.27c-.011-.023.091-.057.25-.069z" fill="url(#paint6_linear)"/><path d="M9.02 11.047a.41.41 0 0 1 .125.022v2.38c-.046.012-.08.023-.125.023-.4 0-.718-.535-.718-1.207 0-.683.319-1.218.718-1.218z" fill="url(#paint7_radial)"/><path d="M7.926 11.855c-.023 0-.045-.011-.068-.011V9.783c.023-.012.045-.012.068-.012.217 0 .399.467.399 1.048 0 .57-.182 1.036-.399 1.036z" fill="url(#paint8_radial)"/><path d="M8.37 9.51v4.43c-.022-.024-.045-.024-.068 0V9.52c.023.012.046.012.068-.01z" fill="url(#paint9_linear)"/><path d="M8.154 9.52v4.396c-.023-.01-.034-.01-.046 0V9.532c.023.011.035.011.046-.011z" fill="url(#paint10_linear)"/><path d="M8.69 9.51v4.418c-.024-.023-.046-.023-.07 0v-4.43c.024.045.046.045.07.011z" fill="url(#paint11_linear)"/><path d="M8.883 9.532v4.384a.035.035 0 0 0-.046 0V9.521c.012.022.034.022.046.011z" fill="url(#paint12_linear)"/><path d="M8.37 9.51v4.43c0-.012-.011-.012-.011-.012V9.532c0-.011 0-.023.011-.023z" fill="url(#paint13_linear)"/><path d="M8.154 9.52v4.397c-.011 0-.011-.012-.011-.012V9.532s.011 0 .011-.011z" fill="url(#paint14_linear)"/><path d="M8.69 9.51v4.418c-.012 0-.012-.012-.012-.012V9.521s.011 0 .011-.012z" fill="url(#paint15_linear)"/><path d="M8.883 9.532v4.384l-.012-.01V9.531h.012z" fill="url(#paint16_linear)"/><path d="M7.96 9.634c-.01 0-.01 0 0 0l-.102.012.103-.012c-.012 0-.012 0 0 0l.148.069-.148-.069z" fill="#3C3C3B"/><path d="M7.96 9.657l-.113.012.113-.012c0 .012 0 .012 0 0 0 .012 0 .012 0 0l.148.057-.148-.057zM8.37 9.76s.103.045.114.102c-.011-.057-.114-.102-.114-.102zM8.154 9.669v.011l.091.057.057-.103-.057.103-.091-.068z" fill="#3C3C3B"/><path d="M8.37 9.737s.114.057.114.114c0-.068-.114-.114-.114-.114zM8.37 9.988s.103.056.114.125c-.011-.08-.114-.125-.114-.125zM8.37 9.953s.114.069.114.126c0-.069-.114-.126-.114-.126zM8.154 9.896v.012l.091.057.057-.103v-.011l-.057.102-.091-.057zM7.96 9.85c-.011 0-.011 0 0 0l-.102.012.102-.011c-.011 0-.011 0 0 0 0 .011 0 .011 0 0l.148.08-.148-.08z" fill="#3C3C3B"/><path d="M7.96 9.885l-.113.011.113-.011c0 .011 0 .011 0 0l.148.068-.148-.068zM8.154 10.147v.011l.091.046.057-.103-.057.103-.091-.057zM8.37 10.193s.114.068.114.148c0-.08-.114-.148-.114-.148zM7.96 10.101c-.011-.011-.011-.011 0 0l-.102.012.102-.012c-.011 0-.011 0 0 0l.148.091-.148-.09z" fill="#3C3C3B"/><path d="M7.96 10.136l-.113.011.113-.011.148.08-.148-.08zM8.37 10.227s.103.068.114.136c-.011-.08-.114-.136-.114-.136zM7.96 10.409l-.113.011.113-.011c0 .011 0 .011 0 0l.148.091-.148-.091zM8.37 10.5c0 .011.103.068.114.148-.011-.08-.114-.148-.114-.148z" fill="#3C3C3B"/><path d="M7.96 10.363c-.011 0-.011 0 0 0l-.102.012.102-.012c-.011.012-.011.012 0 0 0 .012 0 .012 0 0l.148.103-.148-.103zM8.37 10.454s.114.08.114.16c0-.08-.114-.16-.114-.16zM8.154 10.42v.012l.091.045.057-.102v-.012l-.057.114-.091-.057zM8.37 10.75s.114.092.114.171c0-.09-.114-.17-.114-.17zM7.96 10.705l-.113.011.113-.011c0 .011 0 .011 0 0 0 .011 0 .011 0 0l.148.102-.148-.102zM8.37 10.796c0 .011.103.08.114.17-.011-.102-.114-.17-.114-.17z" fill="#3C3C3B"/><path d="M7.96 10.66c-.011 0-.011 0 0 0l-.102.01.102-.01c-.011 0-.011 0 0 0 0 .01 0 .01 0 0l.148.113-.148-.114zM8.154 10.728l.091.045.057-.102v-.012l-.057.114-.091-.045zM7.96 11.035l-.113.023.113-.023.148.114-.148-.114zM8.154 11.047v.011l.091.046.057-.114v-.012l-.057.114-.091-.045zM8.37 11.115s.103.091.114.182c-.011-.102-.114-.182-.114-.182zM8.37 11.058s.114.091.114.194c0-.103-.114-.194-.114-.194z" fill="#3C3C3B"/><path d="M7.96 10.978c-.011 0-.011 0 0 0l-.102.012.102-.012c-.011 0-.011 0 0 0 0 .012 0 .012 0 0l.148.126-.148-.126zM7.96 11.377l-.113.023.113-.023c0 .011 0 .011 0 0 0 .011 0 .011 0 0l.148.114-.148-.114z" fill="#3C3C3B"/><path d="M7.96 11.32c-.011 0-.011 0 0 0l-.102.011.102-.011c-.011.011-.011.011 0 0 0 .011 0 .011 0 0l.148.137-.148-.137zM8.37 11.457s.103.09.114.205c-.011-.114-.114-.205-.114-.205zM8.37 11.4s.114.102.114.205c0-.103-.114-.205-.114-.205zM8.154 11.4v.011l.091.034.057-.114v-.011l-.057.125-.091-.045zM7.96 11.753l-.113.022.113-.022c0 .011 0 0 0 0l.148.125-.148-.125zM8.37 11.821c0 .011.103.103.114.216-.011-.114-.114-.216-.114-.216z" fill="#3C3C3B"/><path d="M8.37 11.764s.114.114.114.228c0-.114-.114-.228-.114-.228zM8.154 11.775l.091.046.057-.125-.057.114-.091-.035zM7.96 11.684c-.011 0-.011 0 0 0l-.102.023.102-.023c-.011.012-.011.012 0 0 0 .012 0 .012 0 0l.148.148-.148-.148s0 .012 0 0zM7.96 12.06c-.011 0-.011 0 0 0l-.102.012.102-.012c-.011.012-.011.012 0 0 0 .012 0 .012 0 0l.148.137-.148-.137c0 .012 0 .012 0 0zM7.96 12.129l-.113.022.113-.022.148.113-.148-.114zM8.154 12.151l.091.046.057-.125-.057.114-.091-.035zM8.37 12.151s.114.103.114.205c0-.114-.114-.205-.114-.205z" fill="#3C3C3B"/><path d="M8.37 12.197s.103.09.114.205c-.011-.114-.114-.205-.114-.205zM8.154 12.493l.091.046.057-.114-.057.114-.091-.046zM8.37 12.504s.114.091.114.194c0-.103-.114-.194-.114-.194z" fill="#3C3C3B"/><path d="M8.37 12.55s.103.091.114.182c-.011-.102-.114-.182-.114-.182zM7.96 12.47l-.113.023.113-.023c0 .012 0 .012 0 0 0 .012 0 .012 0 0l.148.114-.148-.114z" fill="#3C3C3B"/><path d="M7.96 12.413c-.011 0-.011 0 0 0l-.102.012.102-.012c-.011.012-.011.012 0 0 0 .012 0 .012 0 0l.148.126-.148-.126s0 .012 0 0zM8.37 12.88s.103.08.114.171c-.011-.103-.114-.17-.114-.17zM8.37 12.835s.114.09.114.17c0-.09-.114-.17-.114-.17zM7.96 12.743c-.011 0-.011 0 0 0l-.102.012.102-.012c-.011.012-.011.012 0 0 0 .012 0 .012 0 0l.148.114-.148-.114zM8.154 12.812v.011l.091.046.057-.114v-.012l-.057.114-.091-.045z" fill="#3C3C3B"/><path d="M7.96 12.789l-.113.011.113-.011c0 .011 0 .011 0 0 0 .011 0 .011 0 0l.148.103-.148-.103c0 .011 0 .011 0 0zM8.154 13.108v.011l.091.046.057-.114-.057.114-.091-.057zM8.37 13.142s.114.08.114.16c0-.092-.114-.16-.114-.16z" fill="#3C3C3B"/><path d="M8.37 13.188s.103.068.114.148c-.011-.091-.114-.148-.114-.148zM7.96 13.051c-.011 0-.011 0 0 0l-.102.011.102-.011c-.011 0-.011 0 0 0l.148.102-.148-.102z" fill="#3C3C3B"/><path d="M7.96 13.097l-.113.01.113-.01.148.09-.148-.09zM7.96 13.37l-.113.011.113-.011.148.08-.148-.08zM8.37 13.427s.114.068.114.148c0-.091-.114-.148-.114-.148zM8.154 13.381l.091.057.057-.102v-.012l-.057.114-.091-.057zM7.96 13.324c-.011 0-.011 0 0 0l-.102.012.102-.012c-.011.012-.011.012 0 0 0 .012 0 .012 0 0l.148.091-.148-.09z" fill="#3C3C3B"/><path d="M8.37 13.461s.103.068.114.137c-.011-.08-.114-.137-.114-.137zM7.96 13.586c-.011 0-.011 0 0 0l-.102.012.102-.012c-.011 0-.011 0 0 0l.148.08-.148-.08z" fill="#3C3C3B"/><path d="M7.96 13.62s0-.011 0 0l-.113.012.113-.012.148.069-.148-.069zM8.37 13.677s.114.069.114.126c0-.069-.114-.126-.114-.126zM8.37 13.711s.103.057.114.126c-.011-.069-.114-.126-.114-.126zM8.154 13.632l.091.057.057-.103-.057.103-.091-.057zM8.154 13.848v.011l.091.057.057-.102-.057.102-.091-.068zM7.96 13.837l-.113.011.113-.011c0 .011 0 .011 0 0 0 .011 0 .011 0 0l.148.057-.148-.057z" fill="#3C3C3B"/><path d="M7.96 13.814c-.011 0-.011 0 0 0l-.102.011.102-.011c-.011 0-.011 0 0 0l.148.068-.148-.068zM8.439 13.962a.296.296 0 0 0-.08-.034c.011-.012.057 0 .08.034zM8.393 13.95c-.011 0-.023-.01-.023-.01s.012 0 .035.01h-.012z" fill="#3C3C3B"/><path d="M8.37 9.646v.08s.114.045.114.102v-.034c-.011-.046-.114-.148-.114-.148zm0 .102c0 .012.103.057.114.114 0-.057-.114-.114-.114-.114zm-.216-.08l.091.058.057-.103v-.011l-.057.057-.091-.057v.057zm-.194-.08h-.022l-.091.012v.046l.102-.012h.023l.148.069V9.69l-.125-.09c-.012-.012-.023-.012-.035-.012zm0 .07l-.113.01v.012l.113-.023.148.069-.148-.069s.012 0 0 0zM8.37 9.862v.091s.114.057.114.126v-.046c-.011-.068-.114-.17-.114-.17zm0 .114c0 .012.103.057.114.125v-.011c0-.057-.114-.114-.114-.114zm-.216-.08l.091.057.057-.102v-.012l-.057.057-.091-.057v.057zm-.194-.09h-.022l-.091.01v.058l.102-.012h.023l.148.08v-.011l-.125-.103c-.012-.023-.023-.023-.035-.023zm0 .068l-.113.011v.011l.113-.022c0 .011 0 .011 0 0 0 .011 0 .011 0 0l.148.08-.148-.08s.012 0 0 0zM8.37 10.101v.091s.114.069.114.137v-.045c-.011-.08-.114-.183-.114-.183zm0 .114v.012s.103.057.114.136v-.011c0-.068-.114-.137-.114-.137zm-.216-.068l.091.057.057-.103v-.011l-.057.068-.091-.057v.046zm-.194-.103h-.022l-.091.012v.057l.102-.012h.023l.148.08v-.023l-.125-.114H7.96zm0 .08l-.113.012v.011l.113-.023c0 .012 0 .012 0 0 0 .012 0 .012 0 0l.148.08-.148-.08s.012 0 0 0zM8.37 10.363v.103s.114.068.114.16v-.058c-.011-.09-.114-.205-.114-.205zm0 .126v.011s.103.068.114.148v-.011c0-.08-.114-.148-.114-.148zm-.216-.069l.091.046.057-.114v-.011l-.057.068-.091-.046v.057zm-.194-.114h-.022l-.091.012v.057l.102-.012h.023l.148.091v-.022l-.125-.126H7.96zm0 .092l-.113.01v.012l.113-.022c0 .01 0 .01 0 0v.01l.137.08-.137-.09s.012 0 0 0zM8.37 10.648v.103s.114.08.114.17v-.057c-.011-.09-.114-.216-.114-.216zm0 .125v.012s.103.068.114.16v-.012c0-.069-.114-.16-.114-.16zm-.216-.045l.091.045.057-.114v-.01l-.057.067-.091-.045v.057zm-.194-.137h-.022l-.091.011v.069l.102-.012h.023l.148.103v-.023l-.125-.137c-.012 0-.023 0-.035-.01zm0 .103l-.113.011v.011l.113-.022c0 .011 0 .011 0 0v.011l.137.091v-.011l-.137-.091s.012 0 0 0zM8.37 10.956v.102s.114.091.114.194v-.069a.565.565 0 0 0-.114-.227zm0 .136v.012s.103.08.114.182v-.012c0-.09-.114-.182-.114-.182zm-.216-.045l.091.045.057-.114v-.011l-.057.08L8.154 11v.046zm-.194-.137h-.022l-.091.011v.069l.102-.012h.023l.148.114v-.023l-.125-.148c-.012 0-.023-.011-.035-.011zm0 .114l-.113.011v.012l.102-.023h.011l.137.102v-.011l-.137-.091s.012 0 0 0zM8.37 11.297v.114s.114.103.114.205v-.068c-.011-.126-.114-.25-.114-.25zm0 .137v.023s.103.09.114.193v-.011c0-.103-.114-.205-.114-.205zm-.216-.034l.091.045.057-.114v-.022l-.057.08-.091-.046v.057zm-.194-.148h-.022l-.091.011v.08l.102-.012h.023l.148.126v-.023l-.125-.16c-.012-.022-.023-.022-.035-.022zm0 .114l-.113.022v.012l.102-.023h.011l.137.114v-.012l-.137-.113s.012 0 0 0zM8.37 11.65v.114s.114.103.114.216v-.08c-.011-.102-.114-.25-.114-.25zm0 .16v.022s.103.091.114.217v-.012c0-.125-.114-.227-.114-.227zm-.216-.035l.091.035.057-.126v-.022l-.057.08-.091-.035v.068zm-.194-.159h-.022l-.091.023v.08l.102-.023h.023l.148.136v-.034l-.125-.17c-.012-.012-.023-.012-.035-.012zm0 .125l-.113.023v.011l.102-.022h.011l.137.114v-.012l-.137-.114s.012 0 0 0zM8.37 12.037v.114s.114.103.114.205v-.068c-.011-.114-.114-.25-.114-.25zm0 .148v.023s.103.091.114.194v-.011c0-.114-.114-.206-.114-.206zm-.216-.034l.091.046.057-.114v-.011l-.057.08-.091-.046v.045zm-.194-.16h-.022l-.091.012v.08l.102-.011h.023l.148.125v-.023l-.125-.16c-.012-.01-.023-.022-.035-.022zm0 .115l-.113.023v.01l.102-.022h.011l.137.114-.137-.125s.012.011 0 0zM8.37 12.402v.102s.114.091.114.194v-.068c-.011-.103-.114-.228-.114-.228zm0 .137v.01s.103.08.114.183v-.011c0-.091-.114-.182-.114-.182zm-.216-.046l.091.046.057-.114v-.012l-.057.08-.091-.046v.046zm-.194-.148h-.022l-.091.011v.069l.102-.012h.023l.148.114v-.023l-.125-.148c-.012 0-.023 0-.035-.011zm0 .114l-.113.011v.012l.102-.023h.011l.137.102v.012l-.137-.114s.012 0 0 0zM8.37 12.732v.103s.114.08.114.17v-.057c-.011-.09-.114-.216-.114-.216zm0 .137v.011s.103.068.114.16v-.012c0-.08-.114-.16-.114-.16zm-.216-.057l.091.045.057-.114v-.01l-.057.067-.091-.045v.057zm-.194-.125h-.022l-.091.01v.07l.102-.012h.023l.148.102v-.022l-.125-.137c-.012-.011-.023-.011-.035-.011zm0 .09l-.113.012v.011l.113-.022c0 .011 0 .011 0 0v.011l.137.091v-.011l-.137-.091c0 .011.012.011 0 0zM8.37 13.04v.102s.114.08.114.16v-.057c-.011-.08-.114-.205-.114-.205zm0 .125v.011s.103.069.114.148v-.011c0-.068-.114-.148-.114-.148zm-.216-.057l.091.045.057-.113v-.012l-.057.069-.091-.046v.057zm-.194-.114h-.022l-.091.011v.057l.102-.011h.023l.148.091v-.023l-.125-.125H7.96zm0 .091l-.113.011v.012l.113-.023c0 .011 0 .011 0 0v.011l.137.08v-.011l-.137-.08s.012 0 0 0zM8.37 13.336v.09s.114.07.114.137v-.045c-.011-.08-.114-.182-.114-.182zm0 .114v.011s.103.057.114.137v-.012c0-.068-.114-.136-.114-.136zm-.216-.069l.091.057.057-.102v-.012l-.057.069-.091-.057v.045zm-.194-.114h-.022l-.091.012v.057l.102-.012h.023l.148.08v-.023l-.125-.114c-.012.012-.023.012-.035 0zm0 .091l-.113.012v.011l.113-.023c0 .012 0 .012 0 0 0 .012 0 .012 0 0l.148.08-.148-.08s.012 0 0 0zM8.37 13.586v.091s.114.057.114.126v-.046c-.011-.057-.114-.16-.114-.17zm0 .114c0 .011.103.057.114.125 0-.068-.114-.125-.114-.125zm-.216-.068l.08.057.057-.103v-.011l-.057.068-.091-.057v.046h.011zm-.194-.103h-.022l-.091.012v.057l.102-.012h.023l.148.08v-.011l-.125-.103c-.012-.023-.023-.023-.035-.023zm0 .08l-.113.011v.012l.113-.023c0 .011 0 0 0 0 0 .011 0 .011 0 0l.148.08-.148-.08s.012 0 0 0zM8.484 13.962a.605.605 0 0 0-.125-.125v.08s.046.022.08.045h.045zm-.068 0l-.046-.023v.012s.012 0 .035.011h.01zm-.262-.114l.08.057.057-.102v-.012l-.057.057-.091-.057v.057h.011zm-.194-.08h-.022l-.091.012v.045l.102-.011h.023l.148.068v-.011l-.125-.091c-.012-.012-.023-.012-.035-.012zm0 .069l-.113.011v.012l.113-.023.148.068-.148-.068s.012 0 0 0z" fill="#414141"/><path d="M7.96 9.703l-.113.011v.012l.113-.023c0 .011 0 .011 0 0 0 .011 0 .011 0 0l.148.068-.148-.068s.012 0 0 0zM8.04 9.52l.068.023v.012l-.08-.034h.012zM8.154 9.714v.012l.091.057.057-.057-.057.045-.091-.057z" fill="#A1A1A0"/><path d="M8.2 9.498l.045.034.023-.034-.023.023-.045-.023z" fill="#3C3C3B"/><path d="M8.268 9.498l-.023.023-.045-.023h.068z" fill="#414141"/><path d="M8.154 9.51v.01l.091.058.057-.057v-.012l-.057.057-.091-.057zM8.37 9.805c0 .012.103.057.114.114 0-.068-.114-.114-.114-.114z" fill="#A1A1A0"/><path d="M8.37 9.532s.103.046.114.102c-.011-.056-.114-.102-.114-.102z" fill="#3C3C3B"/><path d="M8.37 9.498s.114.057.114.114c0-.057-.114-.114-.114-.114z" fill="#3C3C3B"/><path d="M8.427 9.486c.023.023.057.057.057.08V9.6c0-.057-.114-.102-.114-.102v-.012h.057z" fill="#414141"/><path d="M8.484 9.623c-.011-.045-.114-.091-.114-.091v-.011s.114.045.114.102z" fill="#414141"/><path d="M8.37 9.578c0 .011.103.056.114.113 0-.068-.114-.113-.114-.113zM8.37 10.044c0 .012.103.057.114.126 0-.069-.114-.126-.114-.126zM8.154 9.953v.012l.091.057.057-.057v-.012l-.057.057-.091-.057zM7.96 9.942l-.113.011v.012l.113-.023c0 .011 0 .011 0 0 0 .011 0 .011 0 0l.148.08-.148-.08s.012 0 0 0zM8.154 10.193v.022l.091.046.057-.057v-.011l-.057.056-.091-.056zM7.96 10.181l-.113.012v.01l.113-.022c0 .012 0 .012 0 0 0 .012 0 .012 0 0l.148.08-.148-.08c0 .012.012.012 0 0zM8.37 10.272v.012s.103.057.114.136v-.011c0-.068-.114-.137-.114-.137zM7.96 10.489l-.113.011v.011l.113-.022c0 .011 0 .011 0 0v.011l.137.08-.137-.091s.012 0 0 0zM8.37 10.568v.012s.103.068.114.148v-.012c0-.068-.114-.148-.114-.148zM8.154 10.5v.011l.091.057.057-.068v-.011l-.057.057-.091-.046zM8.154 10.796v.011l.091.046.057-.068v-.012l-.057.069-.091-.046zM7.96 10.773l-.113.012v.011l.113-.023c-.011.012 0 .012 0 .012l.137.09-.137-.102c0 .012.012.012 0 0zM8.37 10.864v.012s.103.068.114.16v-.012c0-.08-.114-.16-.114-.16zM8.37 11.195v.011s.103.08.114.182v-.011c0-.091-.114-.182-.114-.182zM7.96 11.115l-.113.011v.012l.102-.023h.011l.137.102v-.01l-.137-.092s.012 0 0 0zM8.154 11.126v.023l.091.046.057-.08v-.011l-.057.068-.091-.046zM8.154 11.49v.012l.091.046.057-.08v-.011l-.057.068-.091-.034zM7.96 11.468l-.113.023v.011l.102-.023h.011l.137.114v-.011l-.137-.114s.012 0 0 0zM8.37 11.548v.022s.103.092.114.194v-.011c0-.114-.114-.205-.114-.205zM8.37 11.912v.023s.103.091.114.216v-.011c0-.125-.114-.228-.114-.228zM7.96 11.844l-.113.023v.011l.102-.023h.011l.137.114v-.011l-.137-.114s.012 0 0 0zM8.154 11.855v.023l.091.046.057-.08v-.023l-.057.08-.091-.046zM7.96 12.22l-.113.022v.012l.102-.023h.011l.137.114v-.011l-.137-.114s.012 0 0 0zM8.37 12.288v.023s.103.09.114.193v-.011c0-.103-.114-.205-.114-.205zM8.154 12.231v.023l.091.034.057-.068v-.023l-.057.08-.091-.046zM8.37 12.63v.011s.103.08.114.182v-.011c0-.091-.114-.182-.114-.182zM8.154 12.561v.023l.091.046.057-.069v-.022l-.057.068-.091-.046zM7.96 12.55l-.113.011v.012l.102-.023h.011l.137.102v-.011l-.137-.091s.012 0 0 0zM8.37 12.96v.011s.103.069.114.16v-.012c0-.08-.114-.16-.114-.16zM7.96 12.88l-.113.011v.012l.113-.023c0 .011 0 .011 0 0v.011l.137.092v-.012l-.137-.09s.012 0 0 0zM8.154 12.892v.01l.091.046.057-.068v-.011l-.057.068-.091-.045zM7.96 13.153l-.113.012v.011l.113-.023c0 .012 0 .012 0 0v.012l.137.08-.137-.091s.012 0 0 0zM8.154 13.165v.011l.091.057.057-.068v-.011l-.057.068-.091-.057zM8.37 13.245v.011s.103.068.114.148v-.011c0-.08-.114-.148-.114-.148zM8.154 13.45v.01l.091.058.057-.068v-.012l-.057.057-.091-.045zM8.37 13.53v.01s.103.058.114.137v-.011c0-.068-.114-.137-.114-.137zM7.96 13.438l-.113.012v.01l.113-.022c0 .012 0 .012 0 0 0 .012 0 .012 0 0l.148.08-.148-.08s.012 0 0 0zM8.154 13.677v.012l.091.057.057-.057v-.012l-.057.057-.091-.057zM7.96 13.666l-.113.011v.012l.113-.023c0 .011 0 .011 0 0 0 .011 0 .011 0 0l.148.068-.148-.068c0 .011.012.011 0 0zM8.37 13.768c0 .012.103.057.114.126 0-.069-.114-.126-.114-.126z" fill="#A1A1A0"/><path d="M9.042 9.634l.103.012-.103-.012c-.011 0-.011 0 0 0l-.148.069.148-.069c-.011 0-.011 0 0 0z" fill="#3C3C3B"/><path d="M9.03 9.657l.115.012-.114-.012c0 .012 0 .012 0 0 0 .012 0 .012 0 0l-.148.057.148-.057zM8.62 9.634s-.102.046-.113.103c.011-.057.114-.103.114-.103zM8.837 9.669v.011l-.09.057-.058-.103.057.103.091-.068zM8.78 9.498h.012l-.046.034-.023-.034h.012l.011.023.034-.023z" fill="#3C3C3B"/><path d="M8.62 9.612s-.113.057-.113.114c0-.069.114-.114.114-.114zM8.62 9.862s-.102.057-.113.126c.011-.08.114-.126.114-.126zM8.62 9.828s-.113.068-.113.125c0-.068.114-.125.114-.125zM8.837 9.896v.012l-.09.057-.058-.103v-.011l.057.102.091-.057zM9.042 9.85l.103.012-.103-.011c-.011.011-.011.011 0 0l-.148.08.148-.08c-.011 0-.011 0 0 0z" fill="#3C3C3B"/><path d="M9.03 9.885l.115.011-.114-.011c0 .011 0 .011 0 0l-.148.068.148-.068zM8.837 10.147v.011l-.09.046-.058-.103.057.103.091-.057zM8.62 10.067s-.113.069-.113.148c0-.08.114-.148.114-.148zM9.042 10.101c0-.011 0-.011 0 0l.103.012-.103-.012c-.011 0-.011 0 0 0l-.148.091.148-.09c-.011 0-.011 0 0 0z" fill="#3C3C3B"/><path d="M9.03 10.136l.115.011-.114-.011-.148.08.148-.08zM8.62 10.101s-.102.069-.113.137c.011-.08.114-.137.114-.137zM9.03 10.409l.115.011-.114-.011c0 .011 0 .011 0 0l-.148.091.148-.091zM8.62 10.375c0 .011-.102.068-.113.148.011-.08.114-.148.114-.148z" fill="#3C3C3B"/><path d="M9.042 10.363l.103.012-.103-.012c0 .012 0 .012 0 0-.011.012-.011.012 0 0l-.148.103.148-.103c-.011 0-.011 0 0 0zM8.62 10.33s-.113.079-.113.159c0-.08.114-.16.114-.16zM8.837 10.42v.012l-.09.045-.058-.102v-.012l.057.114.091-.057zM8.62 10.625s-.113.091-.113.171c0-.091.114-.17.114-.17zM9.03 10.705l.115.011-.114-.011c0 .011 0 .011 0 0 0 .011 0 .011 0 0l-.148.102.148-.102zM8.62 10.67s-.102.08-.113.172c.011-.103.114-.171.114-.171z" fill="#3C3C3B"/><path d="M9.042 10.66l.103.01-.103-.01c-.011.01-.011.01 0 0l-.148.113.148-.114c-.011 0-.011 0 0 0zM8.837 10.728l-.09.045-.058-.102v-.012l.057.114.091-.045zM9.03 11.035l.115.023-.114-.023-.148.114.148-.114zM8.837 11.047v.011l-.09.046-.058-.114v-.012l.057.114.091-.045zM8.62 10.99s-.102.08-.113.182c.011-.103.114-.182.114-.182zM8.62 10.933s-.113.09-.113.193c0-.102.114-.193.114-.193z" fill="#3C3C3B"/><path d="M9.042 10.978l.103.012-.103-.012c-.011.012-.011.012 0 0l-.148.126.148-.126c-.011 0-.011 0 0 0zM9.03 11.377l.115.023-.114-.023c0 .011 0 .011 0 0 0 .011 0 .011 0 0l-.148.114.148-.114z" fill="#3C3C3B"/><path d="M9.042 11.32l.103.011-.103-.011c0 .011 0 .011 0 0-.011.011-.011.011 0 0l-.148.137.148-.137c-.011 0-.011 0 0 0zM8.62 11.331c0 .012-.102.091-.113.205.011-.114.114-.205.114-.205zM8.62 11.274s-.113.103-.113.205c0-.102.114-.205.114-.205zM8.837 11.4v.011l-.09.034-.058-.114v-.011l.057.125.091-.045zM9.03 11.753l.115.022-.114-.022c0 .011 0 0 0 0l-.148.125.148-.125zM8.62 11.696s-.102.102-.113.216a.425.425 0 0 1 .114-.216z" fill="#3C3C3B"/><path d="M8.62 11.639s-.113.114-.113.228c0-.126.114-.228.114-.228zM8.837 11.775l-.09.046-.058-.125.057.114.091-.035zM9.042 11.684l.103.023-.103-.023c0 .012 0 .012 0 0-.011.012-.011.012 0 0l-.148.148.148-.148c-.011 0-.011.012 0 0zM9.042 12.06l.103.012-.103-.012c0 .012 0 .012 0 0-.011.012-.011.012 0 0l-.148.137.148-.137c-.011.012-.011.012 0 0z" fill="#3C3C3B"/><path d="M9.03 12.129l.115.022-.114-.022-.148.113.148-.114zM8.837 12.151l-.09.046-.058-.125.057.114.091-.035zM8.62 12.026s-.113.103-.113.205c0-.114.114-.205.114-.205z" fill="#3C3C3B"/><path d="M8.62 12.072s-.102.09-.113.205c.011-.114.114-.205.114-.205zM8.837 12.493l-.09.046-.058-.114.057.114.091-.046zM8.62 12.38s-.113.09-.113.193c0-.103.114-.194.114-.194z" fill="#3C3C3B"/><path d="M8.62 12.425c0 .011-.102.09-.113.182.011-.103.114-.182.114-.182zM9.03 12.47l.115.023-.114-.023c0 .012 0 .012 0 0 0 .012 0 .012 0 0l-.148.114.148-.114z" fill="#3C3C3B"/><path d="M9.042 12.413l.103.012-.103-.012c0 .012 0 .012 0 0-.011.012-.011.012 0 0l-.148.126.148-.126c-.011 0-.011.012 0 0zM8.62 12.755s-.102.08-.113.17c.011-.102.114-.17.114-.17zM8.62 12.71s-.113.09-.113.17c0-.09.114-.17.114-.17zM9.042 12.743l.103.012-.103-.012c0 .012 0 .012 0 0-.011.012-.011.012 0 0l-.148.114.148-.114c-.011 0-.011 0 0 0zM8.837 12.812v.011l-.09.046-.058-.114v-.012l.057.114.091-.045z" fill="#3C3C3B"/><path d="M9.03 12.789l.115.011-.114-.011c0 .011 0 .011 0 0 0 .011 0 .011 0 0l-.148.103.148-.103c0 .011 0 .011 0 0zM8.837 13.108v.011l-.09.046-.058-.114.057.114.091-.057zM8.62 13.017s-.113.08-.113.16c0-.092.114-.16.114-.16z" fill="#3C3C3B"/><path d="M8.62 13.051s-.102.068-.113.148c.011-.08.114-.148.114-.148zM9.042 13.051l.103.011-.103-.011c-.011 0-.011 0 0 0l-.148.102.148-.102c-.011 0-.011 0 0 0z" fill="#3C3C3B"/><path d="M9.03 13.097l.115.01-.114-.01-.148.09.148-.09zM9.03 13.37l.115.011-.114-.011-.148.08.148-.08zM8.62 13.302s-.113.068-.113.148c0-.091.114-.148.114-.148zM8.837 13.381l-.09.057-.058-.102v-.012l.057.114.091-.057z" fill="#3C3C3B"/><path d="M9.042 13.324l.103.012-.103-.012c0 .012 0 .012 0 0-.011.012-.011.012 0 0l-.148.091.148-.09c-.011 0-.011 0 0 0zM8.62 13.336s-.102.068-.113.136v-.011c.011-.068.114-.125.114-.125zM9.042 13.586l.103.012-.103-.012c-.011 0-.011 0 0 0l-.148.08.148-.08c-.011 0-.011 0 0 0z" fill="#3C3C3B"/><path d="M9.03 13.62s0-.011 0 0l.115.012-.114-.012-.148.069.148-.069zM8.62 13.552s-.113.068-.113.125c0-.068.114-.125.114-.125zM8.62 13.586s-.102.057-.113.125c.011-.068.114-.125.114-.125zM8.837 13.632l-.09.057-.058-.103.057.103.091-.057zM8.837 13.848v.011l-.09.057-.058-.102.057.102.091-.068zM9.03 13.837l.115.011-.114-.011c0 .011 0 .011 0 0 0 .011 0 .011 0 0l-.148.057.148-.057z" fill="#3C3C3B"/><path d="M9.042 13.814l.103.011-.103-.011c-.011 0-.011 0 0 0l-.148.068.148-.068c-.011 0-.011 0 0 0zM8.62 13.791s-.113.057-.113.114c0-.068.114-.114.114-.114z" fill="#3C3C3B"/><path d="M8.62 13.814s-.102.046-.113.102c.011-.056.114-.102.114-.102z" fill="#3C3C3B"/><path d="M8.507 9.68v.034c0-.057.114-.102.114-.102v-.08c0-.011-.103.091-.114.148zm0 .057c.011-.046.114-.091.114-.091v-.012c0-.01-.114.046-.114.103zm.33-.114l-.09.057-.058-.057v.011l.057.103.091-.057v-.057zm-.102-.125l.011.034.034-.023-.045-.011zm.273.09l-.125.092v.011l.148-.068h.023l.102.011V9.59l-.09-.011h-.024c-.022.01-.022.01-.034.01zm.012.07l-.137.056.137-.057c.01 0 .01 0 0 0h.01l.103.012v-.012l-.102-.011c0 .011 0 .011-.011.011.01 0 .01 0 0 0zM8.507 9.908v.045c0-.068.114-.125.114-.125v-.091s-.103.102-.114.17zm0 .057c.011-.057.114-.114.114-.114v-.012c0 .012-.114.069-.114.126zm.33-.114l-.09.057-.058-.057v.011l.057.103.091-.057V9.85zm.171-.046l-.125.103v.011l.148-.08h.023l.102.012v-.057l-.09-.011h-.024c-.022.022-.022.022-.034.022zm.012.08l-.137.068.137-.068c.01 0 .01 0 0 0h.01l.103.011v-.011l-.102-.011-.011.011c.01-.011.01-.011 0 0zM8.507 10.158v.046c0-.068.114-.137.114-.137v-.09s-.103.102-.114.181zm0 .069c.011-.069.114-.126.114-.126v-.011s-.114.068-.114.137zm.33-.126l-.09.057-.058-.068v.011l.057.103.091-.057v-.046zm.171-.057l-.125.114v.023l.148-.08h.023l.102.012v-.057l-.09-.011h-.058zm.012.08l-.137.08.137-.08c.01.012.01.012 0 0l.01.012.103.011v-.011l-.102-.012H9.02c.01 0 .01 0 0 0zM8.507 10.432v.057c0-.08.114-.16.114-.16v-.09s-.103.113-.114.193zm0 .08c.011-.08.114-.137.114-.137v-.012s-.114.069-.114.148zm.33-.137l-.09.045-.058-.068v.011l.057.114.091-.045v-.057zm.171-.057l-.125.125v.023l.148-.091h.023l.102.011v-.057l-.09-.011h-.024c-.022-.012-.022-.012-.034 0zm.012.08l-.137.09.137-.09c.01.01.01.01 0 0l.01.01.103.012v-.011l-.102-.011H9.02c.01 0 .01 0 0 0zM8.507 10.728v.057c0-.091.114-.171.114-.171v-.103c0 .012-.103.126-.114.217zm0 .09c.011-.079.114-.159.114-.159v-.011s-.114.091-.114.17zm.33-.147l-.09.045-.058-.068v.011l.057.114.091-.045v-.057zm.171-.069l-.125.137v.023l.148-.103h.023l.102.012v-.069l-.09-.01h-.024c-.022.01-.022.01-.034.01zm.012.103l-.137.091v.011l.137-.102c.01 0 .01 0 0 0l.01.011.103.012v-.012l-.102-.011c0-.011 0-.011-.011 0 .01-.011.01-.011 0 0zM8.507 11.058v.068c0-.102.114-.193.114-.193v-.103s-.103.126-.114.228zm0 .103c.011-.092.114-.171.114-.171v-.012c0-.011-.114.08-.114.183zm.33-.16l-.09.046-.058-.08v.011l.057.114.091-.045V11zm.171-.08l-.125.148v.023l.148-.114h.023l.102.012v-.069l-.09-.011h-.024c-.022 0-.022.011-.034.011zm.012.103l-.137.102v.012l.137-.103c.01 0 .01 0 0-.011l.01.011.103.023v-.011l-.102-.012c0-.011 0-.011-.011-.011.01 0 .01 0 0 0zM8.507 11.411v.068c0-.102.114-.205.114-.205v-.113c0 .01-.103.136-.114.25zm0 .103c.011-.103.114-.183.114-.183v-.022s-.114.102-.114.205zm.33-.171l-.09.045-.058-.08v.023l.057.114.091-.045v-.057zm.171-.08l-.125.16v.022l.148-.125h.023l.102.011v-.08l-.09-.01h-.024c-.022.01-.022.01-.034.022zm.012.103l-.137.113v.012l.137-.114c.01 0 .01 0 0-.011l.01.01.103.024v-.012l-.102-.022H9.02c.01 0 .01 0 0 0zM8.507 11.787v.08c0-.114.114-.217.114-.217v-.114a.49.49 0 0 0-.114.25zm0 .114c.011-.103.114-.205.114-.205v-.023c0 .011-.114.114-.114.228zm.33-.182l-.09.034-.058-.08v.023l.057.125.091-.034v-.069zm.171-.092l-.125.171v.034l.148-.136h.023l.102.023v-.08l-.09-.023h-.024c-.022 0-.022 0-.034.011zm.012.114l-.137.126v.011l.137-.114c.01-.011.01-.011 0-.023l.01.012.103.022v-.01l-.102-.024H9.02c.01 0 .01 0 0 0zM8.507 12.151v.069c0-.103.114-.205.114-.205V11.9c0 .011-.103.148-.114.25zm0 .114c.011-.102.114-.182.114-.182v-.023s-.114.091-.114.205zm.33-.182l-.09.046-.058-.08v.011l.057.114.091-.045v-.046zm.171-.08l-.125.16v.022l.148-.125h.023l.102.012v-.069l-.09-.011h-.024c-.022 0-.022.011-.034.011zm.012.114l-.137.114v.011l.137-.114c.01 0 .01 0 0-.01l.01.01.103.023v-.011l-.102-.023c0-.011 0-.011-.011 0 .01 0 .01-.011 0 0zM8.507 12.504v.069c0-.103.114-.194.114-.194v-.102s-.103.125-.114.227zm0 .091c.011-.09.114-.17.114-.17v-.012s-.114.091-.114.182zm.33-.159l-.09.046-.058-.08v.011l.057.114.091-.045v-.046zm.171-.08l-.125.148v.023l.148-.114h.023l.102.012v-.069l-.09-.011h-.024c-.022.011-.022.011-.034.011zm.012.103l-.137.102v.012l.137-.103c.01 0 .01 0 0-.011l.01.011.103.023v-.011l-.102-.012c0-.011 0-.011-.011-.011.01 0 .01 0 0 0zM8.507 12.823v.057c0-.091.114-.17.114-.17v-.103s-.103.125-.114.216zm0 .091c.011-.08.114-.16.114-.16v-.01s-.114.08-.114.17zm.33-.16l-.09.046-.058-.068v.011l.057.114.091-.045v-.057zm.171-.067l-.125.136v.023l.148-.103h.023l.102.012v-.069l-.09-.01h-.024c-.022.01-.022.01-.034.01zm.012.102l-.137.091v.011l.137-.102c.01.011.01.011 0 0l.01.011.103.012V12.8l-.102-.011c0-.011 0-.011-.011 0 .01 0 .01 0 0 0zM8.507 13.12v.056c0-.08.114-.16.114-.16v-.09c0-.012-.103.102-.114.193zm0 .079c.011-.08.114-.137.114-.137v-.011c0-.011-.114.068-.114.148zm.33-.148l-.09.046-.058-.069v.012l.057.114.091-.046v-.057zm.171-.057l-.125.125v.023l.148-.091h.023l.102.011v-.057l-.09-.011h-.058zm.012.091l-.137.091v.012l.137-.103c.01.011.01.011 0 0l.01.011.103.012v-.011l-.102-.012H9.02c.01 0 .01 0 0 0zM8.507 13.381v.046c0-.069.114-.137.114-.137V13.2s-.103.114-.114.182zm0 .08c.011-.068.114-.125.114-.125v-.012s-.114.069-.114.137zm.33-.137l-.09.057-.058-.068v.011l.057.103.091-.057v-.046zm.171-.045l-.125.114v.022l.148-.08h.023l.102.012v-.057l-.09-.011h-.058zm.012.08l-.137.08.137-.08c.01.01.01.01 0 0l.01.01.103.012v-.011l-.102-.011H9.02c.01 0 .01 0 0 0zM8.507 13.632v.045c0-.057.114-.125.114-.125v-.091s-.103.102-.114.17zm0 .068c.011-.057.114-.114.114-.114v-.011s-.114.057-.114.125zm.33-.125l-.09.057-.058-.069v.012l.057.102.08-.057v-.045h.011zm.171-.034l-.125.102v.012l.148-.08h.023l.102.011v-.057l-.09-.011h-.024c-.022.011-.022.011-.034.023zm.012.068l-.137.068.137-.068c.01.011.01.011 0 0 .01 0 .01 0 .01.011l.103.012v-.012l-.102-.011H9.02c.01 0 .01 0 0 0zM8.507 13.86v.034c0-.057.114-.103.114-.103v-.08c0-.01-.103.092-.114.149zm0 .045c.011-.045.114-.091.114-.091v-.011s-.114.056-.114.102zm.33-.102l-.09.056-.058-.056v.011l.057.102.08-.056v-.057h.011zm.171-.035l-.125.091v.012l.148-.068h.023l.102.011v-.046l-.09-.011h-.024c-.022.011-.022.011-.034.011zm.012.069l-.137.057.137-.057c.01 0 .01 0 0 0h.01l.103.011v-.011l-.102-.012c0 .012 0 .012-.011.012.01 0 .01 0 0 0z" fill="#414141"/><path d="M9.03 9.703l.115.011v.012l-.114-.023c0 .011 0 .011 0 0 0 .011 0 .011 0 0l-.148.068.148-.068zM8.963 9.52l-.08.023v.012l.091-.034h-.011zM8.837 9.714v.012l-.09.057-.058-.057.057.045.091-.057zM8.837 9.498v.011l-.09.069-.058-.057v-.012l.057.057.091-.068zM8.62 9.68c0 .011-.102.057-.113.114 0-.068.114-.114.114-.114zM8.553 9.486c-.023.023-.035.046-.035.069 0-.023.023-.057.046-.069h-.011zM8.62 9.908c0 .011-.102.057-.113.125 0-.068.114-.125.114-.125zM8.837 9.953v.012l-.09.057-.058-.057v-.012l.057.057.091-.057zM9.03 9.942l.115.011v.012l-.114-.023c0 .011 0 .011 0 0 0 .011 0 .011 0 0l-.148.08.148-.08zM8.837 10.193v.022l-.09.046-.058-.057v-.011l.057.056.091-.056zM9.03 10.181l.115.012v.01l-.114-.022c0 .012 0 .012 0 0 0 .012 0 .012 0 0l-.148.08.148-.08c0 .012 0 .012 0 0zM8.62 10.147v.011s-.102.057-.113.137v-.011c0-.069.114-.137.114-.137zM9.03 10.489l.115.011v.011l-.114-.022c0 .011 0 .011 0 0v.011l-.137.08.137-.091zM8.62 10.443v.011s-.102.069-.113.148v-.01c0-.07.114-.149.114-.149zM8.837 10.5v.011l-.09.057-.058-.068v-.011l.057.057.091-.046zM8.837 10.796v.011l-.09.046-.058-.068v-.012l.057.069.091-.046zM9.03 10.773l.115.012v.011l-.114-.023c.011.012 0 .012 0 .012H9.02l-.137.09.148-.102c0 .012 0 .012 0 0zM8.62 10.74v.01s-.102.069-.113.16v-.011c0-.08.114-.16.114-.16zM8.62 11.07v.01s-.102.08-.113.183v-.011c0-.091.114-.183.114-.183zM9.03 11.115l.115.011v.012l-.103-.023h-.011-.011l-.137.102v-.01l.148-.092zM8.837 11.126v.023l-.09.046-.058-.08v-.011l.057.068.091-.046zM8.837 11.49v.012l-.09.046-.058-.08v-.011l.057.068.091-.034zM9.03 11.468l.115.023v.011l-.103-.023h-.011-.011l-.137.114v-.011l.148-.114zM8.62 11.422v.023s-.102.091-.113.194v-.012c0-.113.114-.205.114-.205zM8.62 11.787v.023s-.102.09-.113.216v-.023c0-.114.114-.216.114-.216zM9.03 11.844l.115.023v.011l-.103-.023h-.011-.011l-.137.114v-.011l.148-.114zM8.837 11.855v.023l-.09.046-.058-.08v-.023l.057.08.091-.046zM9.03 12.22l.115.022v.012l-.103-.023h-.011-.011l-.137.114v-.011l.148-.114zM8.62 12.163v.022s-.102.092-.113.194v-.011c0-.103.114-.205.114-.205zM8.837 12.231v.023l-.09.034-.058-.068v-.023l.057.08.091-.046zM8.62 12.504v.012s-.102.08-.113.182v-.011c0-.092.114-.183.114-.183zM8.837 12.561v.023l-.09.046-.058-.069v-.022l.057.068.091-.046zM9.03 12.55l.115.011v.012l-.103-.023h-.011-.011l-.137.102v-.011l.148-.091zM8.62 12.835v.011s-.102.068-.113.16v-.012c0-.08.114-.16.114-.16zM9.03 12.88l.115.011v.012l-.114-.023c0 .011 0 .011 0 0v.011l-.137.092v-.012l.137-.09zM8.837 12.892v.01l-.09.046-.058-.068v-.011l.057.068.091-.045zM9.03 13.153l.115.012v.011l-.114-.023c0 .012 0 .012 0 0v.012l-.137.08.137-.091zM8.837 13.165v.011l-.09.057-.058-.068v-.011l.057.068.091-.057zM8.62 13.12v.01s-.102.069-.113.149v-.012c0-.08.114-.148.114-.148zM8.837 13.45v.01l-.09.058-.058-.068v-.012l.057.057.091-.045zM8.62 13.404v.011s-.102.057-.113.137v-.011c0-.069.114-.137.114-.137zM9.03 13.438l.115.012v.01l-.114-.022c0 .012 0 .012 0 0 0 .012 0 .012 0 0l-.148.08.148-.08zM8.837 13.677v.012l-.09.057-.058-.057v-.012l.057.057.091-.057zM9.03 13.666l.115.011v.012l-.114-.023c0 .011 0 .011 0 0 0 .011 0 .011 0 0l-.148.068.148-.068c0 .011 0 .011 0 0zM8.62 13.643c0 .011-.102.057-.113.125 0-.068.114-.125.114-.125z" fill="#A1A1A0"/><defs><linearGradient id="paint0_linear" x1="9.188" y1="13.812" x2="9.188" y2="9.627" gradientUnits="userSpaceOnUse"><stop stop-color="#010101"/><stop offset=".39" stop-color="#1F2020"/><stop offset=".496" stop-color="#484949"/><stop offset=".549" stop-color="#5B5B5B"/><stop offset=".579" stop-color="#515252"/><stop offset=".713" stop-color="#2A2B2B"/><stop offset=".775" stop-color="#191919"/><stop offset=".934" stop-color="#121212"/><stop offset="1" stop-color="#303030"/></linearGradient><linearGradient id="paint1_linear" x1="7.806" y1="13.812" x2="7.806" y2="9.627" gradientUnits="userSpaceOnUse"><stop stop-color="#010101"/><stop offset=".39" stop-color="#1F2020"/><stop offset=".496" stop-color="#484949"/><stop offset=".549" stop-color="#5B5B5B"/><stop offset=".579" stop-color="#515252"/><stop offset=".713" stop-color="#2A2B2B"/><stop offset=".775" stop-color="#191919"/><stop offset=".934" stop-color="#121212"/><stop offset="1" stop-color="#303030"/></linearGradient><linearGradient id="paint2_linear" x1="8.497" y1="13.957" x2="8.497" y2="9.486" gradientUnits="userSpaceOnUse"><stop stop-color="#010101"/><stop offset=".121" stop-color="#1F2020"/><stop offset=".216" stop-color="#3C3D3D"/><stop offset=".28" stop-color="#4E4E4E"/><stop offset=".44" stop-color="#3E3E3E"/><stop offset=".549" stop-color="#5B5B5B"/><stop offset=".585" stop-color="#686868"/><stop offset=".654" stop-color="gray"/><stop offset=".742" stop-color="#BBB"/><stop offset=".801" stop-color="#8C8A8A"/><stop offset=".862" stop-color="#6C6B6A"/><stop offset=".914" stop-color="#5B5B5A"/><stop offset=".951" stop-color="#555554"/><stop offset="1" stop-color="#303030"/></linearGradient><radialGradient id="paint3_radial" cx="0" cy="0" r="1" gradientUnits="userSpaceOnUse" gradientTransform="matrix(-.05022 0 0 -2.05319 9.144 11.719)"><stop stop-color="#AEAEAE"/><stop offset=".159" stop-color="#919191"/><stop offset="1" stop-color="#010101"/></radialGradient><radialGradient id="paint4_radial" cx="0" cy="0" r="1" gradientUnits="userSpaceOnUse" gradientTransform="matrix(-.0503 0 0 -2.05611 8.625 11.719)"><stop stop-color="#AEAEAE"/><stop offset=".159" stop-color="#919191"/><stop offset="1" stop-color="#010101"/></radialGradient><radialGradient id="paint5_radial" cx="0" cy="0" r="1" gradientUnits="userSpaceOnUse" gradientTransform="matrix(-.05031 0 0 -2.05667 7.87 11.719)"><stop stop-color="#AEAEAE"/><stop offset=".159" stop-color="#919191"/><stop offset="1" stop-color="#010101"/></radialGradient><linearGradient id="paint6_linear" x1="9.142" y1="11.722" x2="7.852" y2="11.722" gradientUnits="userSpaceOnUse"><stop stop-color="#676767"/><stop offset=".126" stop-color="#fff"/><stop offset=".396" stop-color="#fff"/><stop offset=".505" stop-color="#B9B9B9"/><stop offset=".599" stop-color="#fff"/><stop offset=".885" stop-color="#fff"/><stop offset="1" stop-color="#6A6A6A"/></linearGradient><radialGradient id="paint7_radial" cx="0" cy="0" r="1" gradientUnits="userSpaceOnUse" gradientTransform="matrix(-.71671 0 0 -1.20687 9.015 12.249)"><stop stop-color="#6A6A6A"/><stop offset=".753" stop-color="#fff"/></radialGradient><radialGradient id="paint8_radial" cx="0" cy="0" r="1" gradientUnits="userSpaceOnUse" gradientTransform="matrix(.4005 0 0 1.04725 7.922 10.813)"><stop stop-color="#414141"/><stop offset=".83" stop-color="#fff"/></radialGradient><linearGradient id="paint9_linear" x1="8.333" y1="13.934" x2="8.333" y2="9.509" gradientUnits="userSpaceOnUse"><stop stop-color="#010101"/><stop offset=".121" stop-color="#010101"/><stop offset=".28" stop-color="#0B0B0B"/><stop offset=".44" stop-color="#010101"/><stop offset=".549" stop-color="#181818"/><stop offset=".613" stop-color="#353535"/><stop offset=".654" stop-color="#434343"/><stop offset=".742" stop-color="#636464"/><stop offset=".743" stop-color="#626363"/><stop offset=".795" stop-color="#464747"/><stop offset=".844" stop-color="#323232"/><stop offset=".888" stop-color="#222323"/><stop offset=".924" stop-color="#171717"/><stop offset=".951" stop-color="#131313"/><stop offset="1" stop-color="#010101"/></linearGradient><linearGradient id="paint10_linear" x1="8.132" y1="13.921" x2="8.132" y2="9.522" gradientUnits="userSpaceOnUse"><stop stop-color="#010101"/><stop offset=".121" stop-color="#010101"/><stop offset=".28" stop-color="#0B0B0B"/><stop offset=".44" stop-color="#010101"/><stop offset=".549" stop-color="#181818"/><stop offset=".613" stop-color="#353535"/><stop offset=".654" stop-color="#434343"/><stop offset=".742" stop-color="#636464"/><stop offset=".743" stop-color="#626363"/><stop offset=".795" stop-color="#464747"/><stop offset=".844" stop-color="#323232"/><stop offset=".888" stop-color="#222323"/><stop offset=".924" stop-color="#171717"/><stop offset=".951" stop-color="#131313"/><stop offset="1" stop-color="#010101"/></linearGradient><linearGradient id="paint11_linear" x1="8.66" y1="13.934" x2="8.66" y2="9.509" gradientUnits="userSpaceOnUse"><stop stop-color="#010101"/><stop offset=".121" stop-color="#010101"/><stop offset=".28" stop-color="#0B0B0B"/><stop offset=".44" stop-color="#010101"/><stop offset=".549" stop-color="#181818"/><stop offset=".613" stop-color="#353535"/><stop offset=".654" stop-color="#434343"/><stop offset=".742" stop-color="#636464"/><stop offset=".743" stop-color="#626363"/><stop offset=".795" stop-color="#464747"/><stop offset=".844" stop-color="#323232"/><stop offset=".888" stop-color="#222323"/><stop offset=".924" stop-color="#171717"/><stop offset=".951" stop-color="#131313"/><stop offset="1" stop-color="#010101"/></linearGradient><linearGradient id="paint12_linear" x1="8.861" y1="13.921" x2="8.861" y2="9.522" gradientUnits="userSpaceOnUse"><stop stop-color="#010101"/><stop offset=".121" stop-color="#010101"/><stop offset=".28" stop-color="#0B0B0B"/><stop offset=".44" stop-color="#010101"/><stop offset=".549" stop-color="#181818"/><stop offset=".613" stop-color="#353535"/><stop offset=".654" stop-color="#434343"/><stop offset=".742" stop-color="#636464"/><stop offset=".743" stop-color="#626363"/><stop offset=".795" stop-color="#464747"/><stop offset=".844" stop-color="#323232"/><stop offset=".888" stop-color="#222323"/><stop offset=".924" stop-color="#171717"/><stop offset=".951" stop-color="#131313"/><stop offset="1" stop-color="#010101"/></linearGradient><linearGradient id="paint13_linear" x1="8.359" y1="13.934" x2="8.359" y2="9.509" gradientUnits="userSpaceOnUse"><stop stop-color="#010101"/><stop offset=".121" stop-color="#010101"/><stop offset=".28" stop-color="#010101"/><stop offset=".44" stop-color="#010101"/><stop offset=".549" stop-color="#010101"/><stop offset=".654" stop-color="#181818"/><stop offset=".742" stop-color="#383938"/><stop offset=".801" stop-color="#272828"/><stop offset=".862" stop-color="#161717"/><stop offset=".914" stop-color="#070808"/><stop offset=".951" stop-color="#010101"/><stop offset="1" stop-color="#010101"/></linearGradient><linearGradient id="paint14_linear" x1="8.149" y1="13.921" x2="8.149" y2="9.522" gradientUnits="userSpaceOnUse"><stop stop-color="#010101"/><stop offset=".121" stop-color="#010101"/><stop offset=".28" stop-color="#010101"/><stop offset=".44" stop-color="#010101"/><stop offset=".549" stop-color="#010101"/><stop offset=".654" stop-color="#181818"/><stop offset=".742" stop-color="#383938"/><stop offset=".801" stop-color="#272828"/><stop offset=".862" stop-color="#161717"/><stop offset=".914" stop-color="#070808"/><stop offset=".951" stop-color="#010101"/><stop offset="1" stop-color="#010101"/></linearGradient><linearGradient id="paint15_linear" x1="8.685" y1="13.931" x2="8.685" y2="9.512" gradientUnits="userSpaceOnUse"><stop stop-color="#010101"/><stop offset=".121" stop-color="#010101"/><stop offset=".28" stop-color="#010101"/><stop offset=".44" stop-color="#010101"/><stop offset=".549" stop-color="#010101"/><stop offset=".654" stop-color="#181818"/><stop offset=".742" stop-color="#383938"/><stop offset=".801" stop-color="#272828"/><stop offset=".862" stop-color="#161717"/><stop offset=".914" stop-color="#070808"/><stop offset=".951" stop-color="#010101"/><stop offset="1" stop-color="#010101"/></linearGradient><linearGradient id="paint16_linear" x1="8.878" y1="13.916" x2="8.878" y2="9.527" gradientUnits="userSpaceOnUse"><stop stop-color="#010101"/><stop offset=".121" stop-color="#010101"/><stop offset=".28" stop-color="#010101"/><stop offset=".44" stop-color="#010101"/><stop offset=".549" stop-color="#010101"/><stop offset=".654" stop-color="#181818"/><stop offset=".742" stop-color="#383938"/><stop offset=".801" stop-color="#272828"/><stop offset=".862" stop-color="#161717"/><stop offset=".914" stop-color="#070808"/><stop offset=".951" stop-color="#010101"/><stop offset="1" stop-color="#010101"/></linearGradient></defs></svg>